<svg id="Filled" height="512" viewBox="0 0 512 512" width="512" xmlns="http://www.w3.org/2000/svg"><path d="m72 136v-24h-24a24 24 0 1 0 24 24z" fill="#f0c6a4"/><path d="m248 312v176h-224v-176a96 96 0 0 1 96-96h32a96 96 0 0 1 96 96z" fill="#dadcde"/><path d="m88 216h96v48h-96z" fill="#f0c6a4"/><path d="m248 136h-48v-80h24a24 24 0 0 1 24 24z" fill="#eba72e"/><path d="m56 440h160v48h-160z" fill="#6a7073"/><path d="m136 263.686-48 16.314v-64z" fill="#c3c6c7"/><path d="m136 263.686 48 16.314v-64z" fill="#c3c6c7"/><path d="m224 112h-24v24a24 24 0 1 0 24-24z" fill="#f0c6a4"/><rect fill="#f7cca9" height="192" rx="80" width="160" x="56" y="40"/><path d="m128 440h16v48h-16z" fill="#4f5659"/><path d="m24 456h32v32h-32z" fill="#c3c6c7"/><path d="m216 456h32v32h-32z" fill="#c3c6c7"/><path d="m88 24a64 64 0 0 0 -64 64v48a24.006 24.006 0 0 1 24-24h8c13.255 0 24-17.909 24-40h128s32 0 32-48z" fill="#f7b030"/><path d="m440 392h48v96h-48z" fill="#f0c6a4" transform="matrix(-1 0 0 -1 928 880)"/><path d="m264 392h48v96h-48z" fill="#f0c6a4"/><path d="m488 328v64h-32v96h-160v-96h-32v-64a96 96 0 0 1 96-96h32a96 96 0 0 1 96 96z" fill="#f7b030"/><path d="m344 224h64v56h-64z" fill="#f0c6a4"/><path d="m344.77 232s-6.708 48 31.23 48a26.574 26.574 0 0 1 -24.927 16c-44.584 0-56.632-64-6.303-64z" fill="#e37e22"/><path d="m407.23 232s6.708 48-31.23 48a26.574 26.574 0 0 0 24.926 16c44.585 0 56.632-64 6.304-64z" fill="#e37e22"/><circle cx="448" cy="64" fill="#734b39" r="40"/><path d="m480 136c0-61.856-48-112-104-112s-104 50.144-104 112v24h208z" fill="#8c5237"/><path d="m464 136h-24v24a24 24 0 1 0 24-24z" fill="#f0c6a4"/><path d="m288 136a24 24 0 1 0 24 24v-24z" fill="#f0c6a4"/><path d="m456 136v32a80 80 0 0 1 -160 0v-32c25.63-1.07 104-7.85 104-48 0 0 7.22 43.7 56 48z" fill="#f7cca9"/><path d="m440 344v-16c0-61.856-48-112-104-112s-104 50.144-104 112v16c0 24 0 56-32 64 0 0 0 32 32 32h208c32 0 32-32 32-32-32-8-32-40-32-64z" fill="#8c5237"/><path d="m447.66 488h-223.32a95.981 95.981 0 0 1 95.66-88h32a95.981 95.981 0 0 1 95.66 88z" fill="#fda2c6"/><path d="m256 424.45v63.55h-31.67a95.755 95.755 0 0 1 31.67-63.55z" fill="#fd84b3"/><path d="m447.67 488h-31.67v-63.55a95.755 95.755 0 0 1 31.67 63.55z" fill="#fd84b3"/><g fill="#f0c6a4"><path d="m304 408h64l-8 32-24 16-24-16z"/><path d="m424 304h-24v24a24 24 0 1 0 24-24z"/><path d="m248 304a24 24 0 1 0 24 24v-24z"/></g><path d="m416 304v32a80 80 0 0 1 -160 0v-32a28.419 28.419 0 0 0 24-16c9.02-18.03 18.46-16 30.77-16 18.46 0 25.23-24 25.23-24s5.54 24 24 24c12.31 0 22.98-2.03 32 16a28.419 28.419 0 0 0 24 16z" fill="#f7cca9"/><path d="m56 328v-16c0-48 48-96 104-96s104 48 104 96v16z" fill="#f7b030"/><path d="m96 310.59v17.41a24 24 0 1 1 -24-24h8s4.29 4.29 16 6.59z" fill="#f0c6a4"/><path d="m272 328a24.008 24.008 0 0 1 -33.25 22.15 24.323 24.323 0 0 1 -7.72-5.18 23.962 23.962 0 0 1 -7.03-16.97v-17.41c11.71-2.3 16-6.59 16-6.59h8a24.006 24.006 0 0 1 24 24z" fill="#f0c6a4"/><path d="m271.66 488h-223.32a95.981 95.981 0 0 1 95.66-88h32a95.981 95.981 0 0 1 95.66 88z" fill="#2d85cc"/><circle cx="160" cy="408" fill="#f0c6a4" r="40"/><path d="m240 304v32a80 80 0 0 1 -160 0v-32s8 8 32 8a113.313 113.313 0 0 1 17.23-32 29.723 29.723 0 0 0 3.85 13c3.84 7 11.54 15 26.92 19 30.77-8 30.77-32 30.77-32a113.313 113.313 0 0 1 17.23 32c24 0 32-8 32-8z" fill="#f7cca9"/><circle cx="344" cy="168" r="8"/><circle cx="408" cy="168" r="8"/><circle cx="88" cy="136" r="8"/><circle cx="184" cy="136" r="8"/><path d="m136 200c18.772 0 28.6-9.285 29.657-10.344a8 8 0 0 0 -11.314-11.313c-.057.057-6.2 5.657-18.343 5.657s-18.286-5.6-18.343-5.657a8 8 0 0 0 -11.314 11.313c1.057 1.059 10.886 10.344 29.657 10.344z"/><circle cx="128" cy="336" r="8"/><circle cx="192" cy="336" r="8"/><path d="m130.343 373.657c1.057 1.058 10.885 10.343 29.657 10.343s28.6-9.285 29.657-10.343a8 8 0 1 0 -11.314-11.314c-.056.057-6.2 5.657-18.343 5.657s-18.286-5.6-18.343-5.657a8 8 0 0 0 -11.314 11.314z"/><circle cx="304" cy="336" r="8"/><circle cx="368" cy="336" r="8"/><path d="m306.343 362.343a8 8 0 0 0 0 11.314c1.057 1.058 10.885 10.343 29.657 10.343s28.6-9.285 29.657-10.343a8 8 0 0 0 -11.314-11.314c-.057.057-6.2 5.657-18.343 5.657s-18.287-5.6-18.343-5.657a8 8 0 0 0 -11.314 0z"/><path d="m448 16a47.945 47.945 0 0 0 -28.684 9.518 103.546 103.546 0 0 0 -43.316-9.518c-29.479 0-57.477 12.548-78.836 35.333a123.219 123.219 0 0 0 -33.164 84.667v2.868a31.975 31.975 0 0 0 24 53.132 32.229 32.229 0 0 0 3.279-.173 87.508 87.508 0 0 0 9.832 22.316 111.727 111.727 0 0 0 -38.411 23.657 119.618 119.618 0 0 0 -13.1 14.455 119.34 119.34 0 0 0 -52.033-37.452 87.9 87.9 0 0 0 24.976-46.84c.484.021.969.035 1.456.035a32.036 32.036 0 0 0 32-32v-55.998a32.048 32.048 0 0 0 -13.32-25.959c3.168-7.507 5.321-17.291 5.321-30.041a8 8 0 0 0 -8-8h-152a72.081 72.081 0 0 0 -72 72v48a32.036 32.036 0 0 0 32 32c.49 0 .978-.013 1.465-.035a87.977 87.977 0 0 0 27.6 49.315 105.131 105.131 0 0 0 -40.4 32.491 103.133 103.133 0 0 0 -20.665 62.229v176a8 8 0 0 0 8 8h464a8 8 0 0 0 8-8v-160a104.508 104.508 0 0 0 -58.382-93.467q-.99-.936-2.068-1.8a88.136 88.136 0 0 0 25.166-40.9 32.542 32.542 0 0 0 3.284.167 31.975 31.975 0 0 0 24-53.132v-2.868a125.642 125.642 0 0 0 -5.9-38.185 48.022 48.022 0 0 0 -34.1-81.815zm0 16a32.015 32.015 0 0 1 27.24 48.812 121.857 121.857 0 0 0 -20.4-29.479 117.526 117.526 0 0 0 -19.463-16.733 31.977 31.977 0 0 1 12.623-2.6zm-139.164 30.275c18.303-19.523 42.155-30.275 67.164-30.275s48.861 10.752 67.164 30.275a106.959 106.959 0 0 1 28.608 66.684 31.971 31.971 0 0 0 -7.772-.959c-48.27 0-55.817-39.663-56.109-41.315a8 8 0 0 0 -15.891 1.315c0 19.4-26.9 29.272-49.469 34.133-26.858 5.785-54.26 5.867-54.531 5.867a31.949 31.949 0 0 0 -7.77.959 106.959 106.959 0 0 1 28.606-66.684zm-20.836 113.725a16 16 0 0 1 0-32v24c0 2.692.135 5.353.373 7.984-.125.003-.248.016-.373.016zm-14.372 73.491c15.506-14.5 34.564-23.237 54.372-25.1v22.359c-1.29 3.7-6.75 17.25-17.23 17.25-1.11 0-2.2-.02-3.26-.03-6.57-.1-13.65-.22-20.47 3.75l-1.379-1.379a8 8 0 1 0 -11.314 11.313l1.47 1.47a59.455 59.455 0 0 0 -2.97 5.29 21.7 21.7 0 0 1 -3.847 5.462 99.259 99.259 0 0 0 -9.847-23.6 104.07 104.07 0 0 1 14.475-16.785zm153.641 46.675a32.153 32.153 0 0 0 -3.269-.166h-8a20.185 20.185 0 0 1 -16.85-11.58 52.174 52.174 0 0 0 -2.99-5.26l1.5-1.5a8 8 0 0 0 -11.314-11.313l-1.539 1.539c-7.26-4.14-14.87-4.02-21.53-3.91-1.08.01-2.17.03-3.27.03-10.37 0-15-13.62-16-17.03v-22.589c19.808 1.867 38.866 10.609 54.372 25.1a106.2 106.2 0 0 1 28.89 46.679zm-179.338 124.825a103.958 103.958 0 0 0 -28.98-19.712 88.151 88.151 0 0 0 25.768-41.448 32.031 32.031 0 0 0 6.572 0 88.11 88.11 0 0 0 25.729 41.429 103.746 103.746 0 0 0 -29.089 19.731zm-187.25-104.3a15.93 15.93 0 0 1 11.319-4.691v24c0 2.691.128 5.352.366 7.982-.123 0-.243.018-.366.018a16 16 0 0 1 -11.319-27.307zm27.319.15a81.667 81.667 0 0 0 24 3.159 8.02 8.02 0 0 0 7.643-5.635 98.505 98.505 0 0 1 7.223-16.125c4.549 7.561 13.551 16.933 31.12 21.5a7.986 7.986 0 0 0 4.027 0c17.56-4.565 26.567-13.938 31.122-21.5a98.651 98.651 0 0 1 7.219 16.11 8 8 0 0 0 7.646 5.65 81.667 81.667 0 0 0 24-3.157v19.157a72 72 0 0 1 -144 0zm199.15-25.261c.12-.25.25-.49.38-.73l2.811 2.81a8 8 0 0 0 11.314-11.313l-2.162-2.162a51.773 51.773 0 0 1 7.75-.22c1.15.02 2.32.04 3.52.04 9.69 0 18.26-4.72 24.88-13.69 6.247 8.965 14.627 13.685 24.357 13.685 1.19 0 2.36-.02 3.52-.04a50.82 50.82 0 0 1 8.87.33l-2.052 2.052a8 8 0 1 0 11.314 11.313l2.811-2.81c.12.24.25.48.37.73a36.112 36.112 0 0 0 23.167 19.175v25.25a72 72 0 0 1 -141.659 18.2 31.934 31.934 0 0 0 6.04-46.89 36.1 36.1 0 0 0 14.769-15.73zm-23.15 36.42a16.019 16.019 0 0 1 -16 16c-.123 0-.243-.015-.366-.018.238-2.63.366-5.291.366-7.982v-24a16.019 16.019 0 0 1 16 16zm-104 96a87.59 87.59 0 0 0 30.163-5.326 31.994 31.994 0 0 1 -60.326 0 87.59 87.59 0 0 0 30.163 5.326zm176 0a88.744 88.744 0 0 0 20.34-2.35l-3.353 13.411-16.987 11.324-16.989-11.325-3.36-13.44a87.518 87.518 0 0 0 20.349 2.38zm8 36.281 20.438-13.625a8 8 0 0 0 3.323-4.716l6.684-26.738c1.763-.846 3.5-1.773 5.2-2.759a87.654 87.654 0 0 1 28.355 15.645v51.912h-64zm80-14.9a87.68 87.68 0 0 1 14.525 34.619h-14.525zm10.009-13.381a103.917 103.917 0 0 0 -39-30.71l.011-.01q1.635-1.485 3.21-3.06a87.6 87.6 0 0 0 22.52-38.39 32.534 32.534 0 0 0 3.25.17 31.909 31.909 0 0 0 8.245-1.083c.4 8.5 1.434 17.419 4.165 25.613 4.726 14.175 13.733 23.923 26.823 29.062a29.869 29.869 0 0 1 -2.6 7.236c-3.926 7.518-10.677 11.172-20.633 11.172zm5.991-104a16.019 16.019 0 0 1 -16 16c-.121 0-.239-.012-.36-.015.24-2.638.36-5.307.36-7.985v-24a16.019 16.019 0 0 1 16 16zm-185.795-31.391a32.041 32.041 0 0 0 -6.205-.609h-8a6.87 6.87 0 0 0 -5.561 2.234c-.841.645-6.7 4.73-20.922 5.6a125.238 125.238 0 0 0 -16.407-28.714 8.071 8.071 0 0 0 -9.014-2.814 7.808 7.808 0 0 0 -5.325 7.592c-.047 1.792-1.088 17.27-22.771 23.793-9.481-2.848-16.173-7.735-19.91-14.548a22.791 22.791 0 0 1 -2.86-9.143 7.874 7.874 0 0 0 -5.326-7.642 8.043 8.043 0 0 0 -9.014 2.765 125.238 125.238 0 0 0 -16.407 28.714c-14.217-.872-20.081-4.957-20.922-5.6a6.87 6.87 0 0 0 -5.561-2.237h-8a32.187 32.187 0 0 0 -6.2.6c3.7-16.044 12.98-31.791 26.705-44.793 18.651-17.671 43.253-27.807 67.495-27.807s48.844 10.136 67.5 27.808c13.725 13.004 23.011 28.755 26.705 44.801zm-102.966-180.854a29.333 29.333 0 0 0 -15.239-3.755c-6.621 0-11.6 1.547-15.271 3.714a31.949 31.949 0 0 0 -24.729-11.714h-16c-.675 0-1.343.028-2.008.069 4.127-7.079 7.814-15.369 9.308-24.069h108.563a71.087 71.087 0 0 1 11.093 27.722 31.8 31.8 0 0 0 -14.956-3.722h-16a31.951 31.951 0 0 0 -24.761 11.755zm-71.239 4.245h16a16 16 0 0 1 0 32h-16a16 16 0 0 1 0-32zm96 0h16a16 16 0 0 1 0 32h-16a16 16 0 0 1 0-32zm48 32v-32a16 16 0 0 1 0 32zm16-72v28.305a31.793 31.793 0 0 0 -16-4.305q-.728 0-1.451.034a86.7 86.7 0 0 0 -8.531-24.806 38.68 38.68 0 0 0 14.782-6.828 39.522 39.522 0 0 0 5.3-4.8 16.027 16.027 0 0 1 5.9 12.4zm-152-48h143.652c-2.775 30.355-21.3 31.926-23.723 32h-127.929a8 8 0 0 0 -8 8c0 8.158-3.627 17.948-10.489 28.311-1.254 1.889-2.511 3.641-3.711 5.227a31.924 31.924 0 0 0 -25.8 2.767v-20.305a56.063 56.063 0 0 1 56-56zm-56 104a16.019 16.019 0 0 1 16-16v32a16.019 16.019 0 0 1 -16-16zm33.053 28.283a31.8 31.8 0 0 0 14.947 3.717h16a31.971 31.971 0 0 0 31.542-37.363c.465-.917 2.822-2.637 8.458-2.637 6.326 0 8.111 2.169 8.449 2.689a31.972 31.972 0 0 0 31.551 37.311h16a31.805 31.805 0 0 0 14.943-3.715 72.082 72.082 0 0 1 -27.979 45.449 106.081 106.081 0 0 0 -18.964-1.734 111.618 111.618 0 0 0 -48.811 11.594 72.241 72.241 0 0 1 -46.136-55.311zm-15.574 95.07a88.8 88.8 0 0 1 42.937-30.928c.671.384 1.351.755 2.033 1.122a119.773 119.773 0 0 0 -12.949 10.645c-19.794 18.753-31.733 42.7-33.312 66.439a32 32 0 0 0 23.812 53.369 32.223 32.223 0 0 0 3.281-.169 88.154 88.154 0 0 0 25.756 41.437 103.745 103.745 0 0 0 -37.037 28.287v-45.555a8 8 0 0 0 -16 0v64h-16v-136a87.25 87.25 0 0 1 17.479-52.647zm-17.479 204.647h13.016a103.323 103.323 0 0 0 -3.775 16h-9.241zm96 16h-70.532a88.6 88.6 0 0 1 54.9-66.133 47.987 47.987 0 0 0 95.257 0 88.491 88.491 0 0 1 54.909 66.133zm130.6-47.067a87.714 87.714 0 0 1 33.8-20.516q2.514 1.451 5.137 2.723l6.7 26.8a8 8 0 0 0 3.323 4.716l20.44 13.625v19.719h-49.249a103.892 103.892 0 0 0 -20.151-47.067zm221.4 47.067h-25.247a103.481 103.481 0 0 0 -10.578-32.19c14.064-1.161 24.978-8.229 30.98-20.232a47.4 47.4 0 0 0 4.845-19.578 8 8 0 0 0 -6.06-7.761c-10.5-2.625-16.778-8.314-20.517-16.239h26.577zm0-152v40h-30.864a160.97 160.97 0 0 1 -1.11-18.9 31.919 31.919 0 0 0 -2.23-44.5 124.406 124.406 0 0 0 -5.77-20.585 45.2 45.2 0 0 0 7.117-16.416 41.3 41.3 0 0 0 .841-7.47 88.483 88.483 0 0 1 32.016 67.871zm-48.531-63.612c-.07.34-.167.682-.251 1.024a121.326 121.326 0 0 0 -14.142-19.6c1.684-.892 3.331-1.844 4.948-2.84 11.627 5.771 10.19 17.778 9.445 21.416zm-26.538-30.462a111.6 111.6 0 0 0 -29.274-17.936c.117 0 .225.01.343.01 18.772 0 28.6-9.285 29.657-10.343a8 8 0 0 0 -11.314-11.314c-.057.057-6.2 5.657-18.343 5.657s-18.286-5.6-18.343-5.657a8 8 0 0 0 -11.314 11.314 28.108 28.108 0 0 0 4.421 3.425 101.163 101.163 0 0 0 -33.385.648 71.589 71.589 0 0 1 -13.379-41.73v-24.621a295.869 295.869 0 0 0 41.676-5.557c30.164-6.464 46.372-16.737 54.626-27.482a69.33 69.33 0 0 0 4.3 6.46c7.635 10.181 21.035 21.958 43.4 25.862v25.338a72.1 72.1 0 0 1 -43.071 65.926zm59.069-57.926c-.125 0-.248-.015-.373-.018.238-2.631.373-5.291.373-7.982v-24a16 16 0 0 1 0 32z"/></svg>