<svg id="Capa_1" enable-background="new 0 0 512 512" height="512" viewBox="0 0 512 512" width="512" xmlns="http://www.w3.org/2000/svg"><g><circle cx="94.615" cy="306.211" fill="#c7c6cc" r="61.719"/><circle cx="417.385" cy="306.211" fill="#c7c6cc" r="61.719"/><ellipse cx="60.169" cy="205.083" fill="#f2bb88" rx="60.169" ry="54.818"/><path d="m78.275 225.819c-1.971 0-3.938-.772-5.411-2.306-4.224-4.4-13.762-12.261-30.183-15.481-4.065-.797-6.714-4.738-5.917-8.803.796-4.065 4.738-6.713 8.803-5.917 15.17 2.974 28.708 10.01 38.118 19.812 2.869 2.988 2.772 7.736-.216 10.605-1.454 1.396-3.325 2.09-5.194 2.09z" fill="#da9b85"/><ellipse cx="451.831" cy="205.083" fill="#f2bb88" rx="60.169" ry="54.818"/><path d="m433.725 225.819c-1.868 0-3.739-.693-5.193-2.09-2.988-2.869-3.085-7.616-.216-10.605 9.41-9.802 22.947-16.838 38.118-19.812 4.063-.795 8.006 1.852 8.803 5.917.797 4.064-1.852 8.006-5.917 8.803-16.421 3.22-25.959 11.081-30.183 15.481-1.473 1.534-3.442 2.306-5.412 2.306z" fill="#da9b85"/><path d="m407.656 388.582c-31.881-58.566-87.884-97.744-151.656-97.744s-119.775 39.178-151.656 97.744c-5.6 45.185 8.345 87.02 34.165 112.228h234.982c25.819-25.208 39.764-67.043 34.165-112.228z" fill="#f5c9d3"/><path d="m256 404.696c50.295 0 97.636-14.4 135.844-40.945-32.94-44.541-81.579-72.912-135.844-72.912s-102.904 28.371-135.844 72.912c38.208 26.545 85.549 40.945 135.844 40.945z" fill="#f1aacb"/><g fill="#fbf6b2"><path d="m138.509 500.811c7.127-32.146-12.858-80.682-34.165-112.228-10.968 20.149-19.088 42.588-23.677 66.523-4.552 23.738 13.832 45.706 38.003 45.706h19.839z"/><path d="m373.491 500.811c-7.127-32.146 12.858-80.682 34.165-112.228 10.968 20.149 19.088 42.588 23.677 66.523 4.552 23.738-13.832 45.706-38.003 45.706h-19.839z"/><path d="m256 373.79c-60.634 93.503-134.982 29.009-113.421-37.848z"/></g><path d="m142.579 335.942c-4.537 14.067-4.814 28.023-1.88 40.431 27.141 14.693 57.783 23.937 90.165 27.093 8.449-7.256 16.918-17.004 25.136-29.676z" fill="#f6e3a3"/><path d="m256 373.79c60.634 93.503 134.982 29.009 113.421-37.848z" fill="#fbf6b2"/><path d="m369.421 335.942c4.537 14.067 4.814 28.023 1.88 40.431-27.141 14.693-57.783 23.937-90.165 27.093-8.449-7.256-16.918-17.004-25.136-29.676z" fill="#f6e3a3"/><path d="m64.962 199.666c0 102.326 85.53 174.124 191.038 174.124s191.038-71.799 191.038-174.124-85.531-149.906-191.038-149.906-191.038 47.58-191.038 149.906z" fill="#f2d1a5"/><path d="m263.159 20.352c41.668-22.116 106.537-2.054 121.693 37.255 1.524 3.952 5.663 6.273 9.832 5.519 71.514-12.941 108.533 79.683 67.081 100.614-36.416 18.389-69.972-18.315-78.927-39.688-1.898-4.53-7.012-6.789-11.676-5.248-33.79 11.164-86.177-.213-111.131-11.765-2.564-1.187-5.498-1.187-8.062 0-24.954 11.552-77.341 22.93-111.131 11.765-4.664-1.541-9.778.717-11.676 5.248-8.956 21.372-42.511 58.077-78.927 39.688-41.452-20.933-4.434-113.556 67.081-100.615 4.168.754 8.308-1.566 9.831-5.519 15.157-39.308 80.025-59.37 121.693-37.255 4.491 2.384 9.829 2.384 14.319.001z" fill="#c7c6cc"/><path d="m170.797 18.47c-20.145 7.829-36.871 21.555-43.65 39.136-1.524 3.952-5.663 6.273-9.831 5.519-71.515-12.941-108.533 79.683-67.081 100.614 36.416 18.389 69.972-18.316 78.927-39.688 1.898-4.531 7.012-6.789 11.676-5.248 16.898 5.583 38.447 5.529 58.891 2.634-48.38-5.518-56.701-71.984-28.932-102.967z" fill="#abb6c4"/><g><g><ellipse cx="169.623" cy="231.501" fill="#eda1ab" rx="31.872" ry="25.381"/><ellipse cx="342.377" cy="231.501" fill="#eda1ab" rx="31.872" ry="25.381"/><ellipse cx="256" cy="212" fill="#565e75" rx="16.918" ry="18.932"/></g><g fill="#565e75"><path d="m206.19 208.173c-4.142 0-7.5-3.358-7.5-7.5 0-3.684-2.997-6.68-6.681-6.68s-6.681 2.997-6.681 6.68c0 4.142-3.358 7.5-7.5 7.5s-7.5-3.358-7.5-7.5c0-11.955 9.726-21.68 21.681-21.68s21.681 9.726 21.681 21.68c0 4.142-3.357 7.5-7.5 7.5z"/><path d="m332.949 208.173c-4.142 0-7.5-3.358-7.5-7.5 0-3.684-2.997-6.68-6.681-6.68s-6.68 2.997-6.68 6.68c0 4.142-3.358 7.5-7.5 7.5s-7.5-3.358-7.5-7.5c0-11.955 9.726-21.68 21.68-21.68s21.681 9.726 21.681 21.68c0 4.142-3.358 7.5-7.5 7.5z"/></g></g><ellipse cx="256" cy="447.649" fill="#fff" rx="7.712" ry="7.712" transform="matrix(.987 -.16 .16 .987 -68.4 46.787)"/><g fill="#f2bb88"><path d="m121.422 209.625c-3.139 0-6.058-1.991-7.105-5.136-1.309-3.93.829-8.181 4.758-9.49 2.851-.95 15.767-3.268 18.888-3.268 4.142 0 7.5 3.358 7.5 7.5 0 4.11-3.305 7.447-7.403 7.499-2.081.118-12.407 1.932-14.271 2.508-.785.262-1.583.387-2.367.387z"/><path d="m390.555 209.617c-.779 0-1.572-.123-2.352-.38-1.883-.58-12.185-2.389-14.264-2.506-4.098-.052-7.403-3.39-7.403-7.499 0-4.142 3.358-7.5 7.5-7.5 3.121 0 16.037 2.318 18.888 3.268 3.93 1.309 6.054 5.556 4.745 9.486-1.046 3.142-3.973 5.131-7.114 5.131z"/></g></g></svg>