<svg id="Capa_1" enable-background="new 0 0 502 502" height="512" viewBox="0 0 502 502" width="512" xmlns="http://www.w3.org/2000/svg" xmlns:xlink="http://www.w3.org/1999/xlink"><linearGradient id="lg1"><stop offset="0" stop-color="#f2ae6f"/><stop offset="1" stop-color="#f2d1a5"/></linearGradient><linearGradient id="SVGID_1_" gradientUnits="userSpaceOnUse" x1="62.802" x2="10.584" xlink:href="#lg1" y1="183.881" y2="183.881"/><linearGradient id="SVGID_2_" gradientTransform="matrix(-1 0 0 1 -562 0)" gradientUnits="userSpaceOnUse" x1="-1001.198" x2="-1053.416" xlink:href="#lg1" y1="183.881" y2="183.881"/><linearGradient id="lg2"><stop offset="0" stop-color="#74d2e8"/><stop offset="1" stop-color="#baeaf5"/></linearGradient><linearGradient id="SVGID_3_" gradientUnits="userSpaceOnUse" x1="149.677" x2="57.016" xlink:href="#lg2" y1="401.02" y2="401.02"/><linearGradient id="SVGID_4_" gradientTransform="matrix(-1 0 0 1 -3754 0)" gradientUnits="userSpaceOnUse" x1="-4106.323" x2="-4198.984" xlink:href="#lg2" y1="401.02" y2="401.02"/><linearGradient id="SVGID_5_" gradientUnits="userSpaceOnUse" x1="251" x2="251" xlink:href="#lg2" y1="261.874" y2="454.466"/><linearGradient id="lg3"><stop offset="0" stop-color="#ac6c58"/><stop offset="1" stop-color="#da9b8c"/></linearGradient><linearGradient id="SVGID_6_" gradientUnits="userSpaceOnUse" x1="158.421" x2="158.421" xlink:href="#lg3" y1="338.584" y2="492.114"/><linearGradient id="SVGID_7_" gradientTransform="matrix(-1 0 0 1 502 0)" gradientUnits="userSpaceOnUse" x1="158.421" x2="158.421" xlink:href="#lg3" y1="338.584" y2="492.114"/><linearGradient id="lg4"><stop offset="0" stop-color="#f9edaf"/><stop offset="1" stop-color="#fffcdd"/></linearGradient><linearGradient id="SVGID_8_" gradientUnits="userSpaceOnUse" x1="205.467" x2="205.467" xlink:href="#lg4" y1="354.195" y2="413.307"/><linearGradient id="SVGID_9_" gradientTransform="matrix(-1 0 0 1 502 0)" gradientUnits="userSpaceOnUse" x1="205.467" x2="205.467" xlink:href="#lg4" y1="354.195" y2="413.307"/><linearGradient id="SVGID_10_" gradientUnits="userSpaceOnUse" x1="251" x2="251" xlink:href="#lg1" y1="504.598" y2="156.62"/><linearGradient id="lg5"><stop offset="0" stop-color="#d4dbdb"/><stop offset="1" stop-color="#f3f3f3"/></linearGradient><linearGradient id="SVGID_11_" gradientUnits="userSpaceOnUse" x1="83.814" x2="83.814" xlink:href="#lg5" y1="200.71" y2="73.929"/><linearGradient id="SVGID_12_" gradientTransform="matrix(-1 0 0 1 502 0)" gradientUnits="userSpaceOnUse" x1="83.814" x2="83.814" xlink:href="#lg5" y1="200.71" y2="73.929"/><g><path d="m107.168 177.985c0-29.594-23.99-53.584-53.584-53.584s-53.584 23.99-53.584 53.584c0 40.504 33.654 65.376 63.248 65.376s43.92-35.782 43.92-65.376z" fill="url(#SVGID_1_)"/><path d="m394.832 177.985c0-29.594 23.99-53.584 53.584-53.584s53.584 23.99 53.584 53.584c0 40.504-33.654 65.376-63.248 65.376s-43.92-35.782-43.92-65.376z" fill="url(#SVGID_2_)"/><path d="m152.526 317.159c-66.282 11.156-108.153 73.97-118.25 137.902-2.472 15.655 9.631 29.819 25.48 29.819h33.597l108.485-167.72h-49.312z" fill="url(#SVGID_3_)"/><path d="m349.474 317.159c66.281 11.156 108.153 73.97 118.25 137.902 2.472 15.655-9.631 29.819-25.48 29.819h-33.597l-108.485-167.72h49.312z" fill="url(#SVGID_4_)"/><path d="m408.646 484.88c0-106.836-70.581-193.443-157.646-193.443s-157.646 86.607-157.646 193.443z" fill="url(#SVGID_5_)"/><path d="m145.129 341.551c-7.265 8.086-13.908 16.997-19.842 26.604 36.915 22.883 80.323 35.19 125.712 35.19 22.16 0 43.85-2.932 64.542-8.596 9.077-2.484 14.3-11.979 11.458-20.95-2.681-8.463-11.568-13.287-20.128-10.933-17.689 4.865-36.446 7.479-55.872 7.479-39.084 0-75.452-10.594-105.87-28.794z" fill="#71c4d1"/><path d="m93.354 484.88h130.133c-18.694-30.742-39.48-122.553-38.894-175.479-53.88 30.754-91.239 97.757-91.239 175.479z" fill="url(#SVGID_6_)"/><path d="m125.29 368.156c21.344 13.231 44.862 22.914 69.676 28.739-2.486-11.95-4.64-24.112-6.332-35.937-15.467-4.809-30.049-11.358-43.475-19.389-7.27 8.087-13.933 16.978-19.869 26.587z" fill="#a86455"/><path d="m408.646 484.88h-130.133c18.694-30.742 39.48-122.553 38.894-175.479 53.88 30.754 91.239 97.757 91.239 175.479z" fill="url(#SVGID_7_)"/><path d="m251 370.345c-11.614 12.53-38.822 31.871-56.834 42.606-8.752 5.216-20.147 1.758-24.38-7.509-7.706-16.87-13.105-42.354-7.613-76.678z" fill="url(#SVGID_8_)"/><path d="m251 370.345c11.614 12.53 38.822 31.871 56.834 42.606 8.752 5.216 20.147 1.758 24.379-7.509 7.706-16.87 13.105-42.354 7.613-76.678z" fill="url(#SVGID_9_)"/><ellipse cx="251" cy="193.733" fill="url(#SVGID_10_)" rx="193.443" ry="176.612"/><g><ellipse cx="163.115" cy="227.008" fill="#eaadcd" rx="14.936" ry="12.003"/><ellipse cx="338.886" cy="227.008" fill="#eaadcd" rx="14.936" ry="12.003"/><ellipse cx="188.721" cy="197.39" fill="#fff" rx="29.618" ry="29.618" transform="matrix(.851 -.526 .526 .851 -75.589 128.697)"/><ellipse cx="313.279" cy="197.39" fill="#fff" rx="29.618" ry="29.618" transform="matrix(.383 -.924 .924 .383 11.027 411.284)"/><g fill="#3b3b44"><g><ellipse cx="188.721" cy="197.39" rx="17.652" ry="17.652" transform="matrix(.29 -.957 .957 .29 -54.888 320.814)"/><ellipse cx="313.279" cy="197.39" rx="17.652" ry="17.652" transform="matrix(.189 -.982 .982 .189 60.206 467.688)"/></g><path d="m251 227.951c-5.247 0-10.495-1.985-14.775-5.955-2.025-1.877-2.145-5.041-.267-7.065 1.876-2.025 5.042-2.145 7.065-.267 4.697 4.354 11.256 4.354 15.953 0 2.024-1.877 5.188-1.758 7.065.267s1.759 5.188-.267 7.065c-4.279 3.97-9.527 5.955-14.774 5.955z"/></g></g><path d="m130.899 200.707c-.524 0-1.055-.042-1.589-.127-11.891-1.898-21.935-4.916-30.705-9.225-4.957-2.436-7.001-8.428-4.566-13.385 2.435-4.956 8.429-7 13.385-4.566 6.956 3.417 15.146 5.847 25.039 7.426 5.454.871 9.17 5.998 8.299 11.451-.785 4.92-5.035 8.426-9.863 8.426z" fill="#e8aa70"/><path d="m371.101 200.707c-4.828 0-9.077-3.506-9.862-8.426-.871-5.453 2.845-10.58 8.299-11.451 9.893-1.579 18.083-4.009 25.039-7.426 4.956-2.436 10.95-.391 13.385 4.566s.391 10.949-4.566 13.385c-8.771 4.309-18.814 7.326-30.705 9.225-.535.085-1.066.127-1.59.127z" fill="#e8aa70"/><path d="m69.743 163.146c35.046 1.499 37.409-81.98 61.144-107.854-53.274-31.495-86.187 20.209-92.37 49.438-6.183 29.23 3.683 57.238 31.226 58.416z" fill="url(#SVGID_11_)"/><path d="m432.257 163.146c-35.046 1.499-37.409-81.98-61.144-107.854 53.274-31.495 86.187 20.209 92.37 49.438 6.183 29.23-3.683 57.238-31.226 58.416z" fill="url(#SVGID_12_)"/><g fill="#f2e07e"><path d="m160.061 349.635c-.575 14.483.882 26.992 3.461 37.545 15.977 6.19 32.727 10.656 49.978 13.305 14.515-9.967 29.608-21.625 37.501-30.14-32.878 0-63.831-7.498-90.94-20.71z"/><path d="m288.512 400.493c9.164-1.407 18.189-3.324 27.031-5.744 9.077-2.484 14.3-11.979 11.458-20.95-2.681-8.463-11.568-13.287-20.128-10.933-17.689 4.865-36.446 7.479-55.872 7.479 7.894 8.517 22.992 20.179 37.511 30.148z"/></g></g></svg>