<svg id="Capa_1" enable-background="new 0 0 512 512" height="512" viewBox="0 0 512 512" width="512" xmlns="http://www.w3.org/2000/svg"><g><g><g><path d="m384 290.039h-.003-.002z" fill="#5e6b75"/><path d="m383.997 280.458c69.328 0 105.366-19.482 114.064-32.65 17.193-177.348-65.912-211.307-114.064-211.307s-131.257 33.959-114.064 211.307c8.793 13.382 44.736 32.65 114.064 32.65z" fill="#26457d"/></g><path d="m244.681 307.492v-90.423c0-137.299-48.556-178.398-116.684-178.398s-116.684 41.098-116.684 178.398v90.43z" fill="#26457d"/><path d="m165.987 271.458h-75.974c-31.451 0-59.638 13.969-78.7 36.04v35.313h233.368v-35.319c-19.061-22.067-47.246-36.034-78.694-36.034z" fill="#21386b"/><path d="m256 475.498h-250.839c-2.85 0-5.161-2.311-5.161-5.161v-90.876c0-54.517 44.195-98.712 98.712-98.712h58.575c54.517 0 98.712 44.195 98.712 98.712v96.037z" fill="#9ec8fc"/><path d="m256 379.457 9 40.76-9 36.7-128 9-128-9v-77.46c0-54.513 44.191-98.704 98.715-98.704h58.57c54.524 0 98.715 44.191 98.715 98.704z" fill="#9ec8fc"/><path d="m5.161 475.498h37.667l7.742-9 7.742 9h139.375l7.742-9 7.742 9h42.829l9-9.29-9-9.29h-256v13.419c0 2.85 2.311 5.161 5.161 5.161z" fill="#80b6fc"/><path d="m160.867 280.748-23.993 40.425c-4 6.739-13.754 6.739-17.754 0l-23.993-40.425z" fill="#c98b53"/><path d="m205.433 445.07-36.232-19.896c-1.547-.85-3.421-.85-4.969 0l-33.748 18.532c-1.547.85-3.421.85-4.969 0l-33.748-18.532c-1.547-.85-3.421-.85-4.969 0l-36.231 19.896v-29.172l36.232-19.896c1.547-.85 3.421-.85 4.969 0l33.748 18.532c1.547.85 3.421.85 4.969 0l33.748-18.532c1.547-.85 3.421-.85 4.969 0l36.232 19.896v29.172z" fill="#f6e080"/><path d="m125.516 434.125-33.748-18.532c-1.547-.85-3.421-.85-4.969 0l-36.232 19.896v18.581l36.232-19.896c1.547-.85 3.421-.85 4.969 0l33.748 18.532c1.547.85 3.421.85 4.969 0l33.748-18.532c1.547-.85 3.421-.85 4.969 0l36.232 19.896v-18.581l-36.232-19.896c-1.547-.85-3.421-.85-4.969 0l-33.748 18.532c-1.548.849-3.422.849-4.969 0z" fill="#eccd61"/><g fill="#6eaaf3"><path d="m58.312 391.669v65.248l-7.742 9-7.742-9v-65.248c0-4.284 3.458-7.742 7.742-7.742 4.274 0 7.742 3.458 7.742 7.742z"/><path d="m213.172 391.669v65.248l-7.742 9-7.742-9v-65.248c0-4.284 3.468-7.742 7.742-7.742 4.283 0 7.742 3.458 7.742 7.742z"/></g><path d="m128 280.458c61.324 0 80.117-44.869 80.117-89.117v-36.599c0-2.85-2.311-5.161-5.161-5.161h-92.283c-1.819 0-3.503-.957-4.434-2.52l-10.902-18.301c-2.002-3.36-6.865-3.362-8.867-.003-3.412 5.728-8.019 13.461-10.907 18.31-.931 1.563-2.612 2.514-4.431 2.514h-18.088c-2.85 0-5.161 2.311-5.161 5.161v36.599c0 44.248 22.424 89.117 80.117 89.117z" fill="#e2a770"/><path d="m42.828 456.917h15.484v18.582h-15.484z" fill="#5d9ee6"/><path d="m197.688 456.917h15.484v18.582h-15.484z" fill="#5d9ee6"/><g><path d="m384 290.039h-.003-.002z" fill="#5e6b75"/><path d="m383.997 271.458h.003-.006.003c-69.328 0-100.266-12.706-114.064-23.65.098 1.015.183 2.01.288 3.035 0 0 3.067 39.195 113.776 39.196 110.709-.001 113.776-39.196 113.776-39.196.105-1.024.189-2.02.288-3.035-13.798 10.944-44.736 23.65-114.064 23.65z" fill="#21386b"/></g><path d="m506.839 475.498h-250.839v-96.037c0-54.517 44.195-98.712 98.712-98.712h58.575c54.517 0 98.712 44.195 98.712 98.712v90.876c.001 2.85-2.31 5.161-5.16 5.161z" fill="#f6e080"/><path d="m512 379.457v77.46l-128.005 9-127.995-9v-77.46c0-54.513 44.191-98.704 98.715-98.704h58.57c54.524 0 98.715 44.191 98.715 98.704z" fill="#f6e080"/><path d="m256 475.498h42.828l7.742-9 7.742 9h139.375l7.742-9 7.742 9h37.667c2.85 0 5.161-2.311 5.161-5.161v-13.419h-255.999z" fill="#eccd61"/><path d="m416.87 280.748s1.507 39.213-32.87 39.213-32.87-39.213-32.87-39.213z" fill="#c98b53"/><path d="m391.681 374.394 5.344 8.605c1.244 2.003 3.213 3.442 5.492 4.013l9.787 2.453c6.496 1.628 9.052 9.539 4.747 14.697l-6.485 7.771c-1.51 1.809-2.262 4.138-2.098 6.494l.705 10.121c.468 6.718-6.222 11.607-12.429 9.083l-9.351-3.802c-2.177-.885-4.611-.885-6.788 0l-9.351 3.802c-6.207 2.524-12.897-2.365-12.429-9.083l.705-10.121c.164-2.356-.588-4.685-2.098-6.494l-6.485-7.771c-4.304-5.158-1.749-13.069 4.747-14.697l9.787-2.453c2.279-.571 4.248-2.01 5.492-4.013l5.344-8.605c3.549-5.712 11.818-5.712 15.364 0z" fill="#dc4955"/><path d="m412.304 389.466-9.787-2.453c-2.279-.571-4.248-2.01-5.492-4.013l-5.344-8.605c-3.547-5.712-11.816-5.712-15.363 0l-5.344 8.605c-1.244 2.003-3.213 3.442-5.492 4.013l-9.787 2.453c-6.496 1.628-9.052 9.539-4.747 14.697l6.485 7.771c1.51 1.809 2.262 4.138 2.098 6.494l-.397 5.701 49.718-.206-.383-5.496c-.164-2.356.588-4.685 2.098-6.494l6.485-7.771c4.303-5.158 1.748-13.068-4.748-14.696z" fill="#dc4955"/><g fill="#ecb85e"><path d="m314.312 391.669v65.248l-7.742 9-7.742-9v-65.248c0-4.284 3.458-7.742 7.742-7.742 4.274 0 7.742 3.458 7.742 7.742z"/><path d="m469.172 391.669v65.248l-7.742 9-7.742-9v-65.248c0-4.284 3.468-7.742 7.742-7.742 4.283 0 7.742 3.458 7.742 7.742z"/></g><path d="m384 280.458c57.665 0 80.117-44.869 80.117-89.117v-10.275c0-1.953-1.102-3.733-2.846-4.613-10.608-5.351-48.492-26.352-72.915-64.389-2.046-3.186-6.668-3.186-8.714 0-24.423 38.037-62.307 59.038-72.915 64.389-1.743.88-2.846 2.66-2.846 4.613v10.275c.002 44.248 16.23 89.117 80.119 89.117z" fill="#e2a770"/><path d="m298.828 456.917h15.484v18.582h-15.484z" fill="#eaa949"/><path d="m453.688 456.917h15.484v18.582h-15.484z" fill="#eaa949"/><path d="m128 271.458c-44.248 0-80.117-35.87-80.117-80.117v18.581c0 44.247 35.869 80.117 80.117 80.117 44.247 0 80.117-35.869 80.117-80.117v-18.581c0 44.248-35.87 80.117-80.117 80.117z" fill="#d5985c"/><path d="m408.852 423.923-24.852-10.054-24.866 10.26-.308 4.419c-.468 6.718 6.222 11.607 12.429 9.083l9.351-3.802c2.177-.885 4.611-.885 6.788 0l9.351 3.802c6.207 2.524 12.897-2.365 12.429-9.083z" fill="#d82f3c"/><path d="m384 271.458c-44.247 0-80.117-35.87-80.117-80.117v18.581c0 44.247 35.87 80.117 80.117 80.117 44.247 0 80.117-35.869 80.117-80.117v-18.581c0 44.248-35.87 80.117-80.117 80.117z" fill="#d5985c"/></g><g><g fill="#5e6b75"><path d="m88.852 177.394c-4.284 0-7.757 3.473-7.757 7.757v17.997c0 4.285 3.473 7.757 7.757 7.757s7.757-3.473 7.757-7.757v-17.997c0-4.284-3.473-7.757-7.757-7.757z"/><path d="m166.647 210.905c4.284 0 7.757-3.473 7.757-7.757v-17.997c0-4.285-3.473-7.757-7.757-7.757s-7.757 3.473-7.757 7.757v17.997c0 4.285 3.473 7.757 7.757 7.757z"/><path d="m345.353 177.394c-4.284 0-7.757 3.473-7.757 7.757v17.997c0 4.285 3.473 7.757 7.757 7.757s7.757-3.473 7.757-7.757v-17.997c0-4.284-3.473-7.757-7.757-7.757z"/><path d="m423.148 177.394c-4.284 0-7.757 3.473-7.757 7.757v17.997c0 4.285 3.473 7.757 7.757 7.757s7.757-3.473 7.757-7.757v-17.997c0-4.284-3.473-7.757-7.757-7.757z"/></g><path d="m152.513 238.221c3.874-9.737-10.024-15.58-14.298-6.099-.31.607-2.695 4.705-10.465 4.705s-10.155-4.099-10.465-4.705c-4.274-9.481-18.172-3.638-14.298 6.099 2.164 5.255 9.814 14.151 24.763 14.151s22.599-8.895 24.763-14.151z" fill="#dc4955"/><path d="m394.713 232.122c-.31.607-2.695 4.705-10.465 4.705s-10.155-4.099-10.465-4.705c-4.274-9.481-18.172-3.638-14.298 6.099 2.164 5.255 9.815 14.151 24.763 14.151 14.949 0 22.6-8.896 24.763-14.151 3.875-9.736-10.024-15.579-14.298-6.099z" fill="#dc4955"/></g></g></svg>