<svg height="512pt" viewBox="0 0 512.00019 512" width="512pt" xmlns="http://www.w3.org/2000/svg"><path d="m78.121094 497.484375c-16.96875 18.242187-45.394532 19.515625-63.640625 2.542969l-1.273438-1.273438c-17.605469-17.605468-18.03125-46.878906 1.273438-64.910156l343.179687-315.566406 36.058594 36.0625zm0 0" fill="#dfd7d5"/><path d="m78.121094 497.484375c-16.96875 18.242187-45.394532 19.515625-63.640625 2.542969l-1.273438-1.273438 362.484375-362.445312 18.03125 18.03125zm0 0" fill="#c4b3af"/><path d="m492.148438 19.851562c-45.394532-45.398437-143.398438-5.09375-190.917969 42.425782-47.09375 47.089844-47.09375 101.398437 0 148.492187 47.09375 47.089844 101.402343 47.089844 148.492187 0 47.519532-47.519531 87.824219-145.523437 42.425782-190.917969zm0 0" fill="#ede9e8"/><path d="m449.722656 210.769531c-47.089844 47.089844-101.398437 47.089844-148.492187 0l190.917969-190.917969c45.398437 45.394532 5.09375 143.398438-42.425782 190.917969zm0 0" fill="#dfd7d5"/></svg>