<svg id="Capa_1" enable-background="new 0 0 497.005 497.005" height="512" viewBox="0 0 497.005 497.005" width="512" xmlns="http://www.w3.org/2000/svg"><g><path d="m125.169 43.67-4.86 18.49-5.14 19.53c-16.35 0-32.33-4.91-45.86-14.09-7.22-4.89-13.56-10.88-18.83-17.71-7.14-9.26-3.5-22.77 7.37-27.09l49.09-19.53 4.9-1.95c1.09-.33 2.2-.6 3.33-.8.04-.01.07-.02.11-.02z" fill="#dff6fd"/><path d="m125.169 43.67-4.86 18.49-5.14 19.53c-16.35 0-32.33-4.91-45.86-14.09-7.22-4.89-13.56-10.88-18.83-17.71-4.92-6.38-4.72-14.77-.57-20.79.18.27.37.53.57.79 5.27 6.83 11.61 12.82 18.83 17.71 13.53 9.18 29.51 14.09 45.86 14.09l5.14-19.53 2.41-9.18z" fill="#c8effe"/><path d="m378.259 39.13c0 3.72-1.18 7.5-3.69 10.76-5.27 6.83-11.61 12.82-18.82 17.71-13.54 9.18-29.52 14.09-45.87 14.09l-13.48-20.45-6.48-9.83 19.76-50.88c.06.01.13.02.2.04 1.56.29 3.08.71 4.54 1.24.02 0 .03 0 .04.01l1.99.79c.02.01.03.02.05.02l8.38 3.34 42.33 16.83c4.82 1.92 8.22 5.65 9.89 10.02.48 1.26.81 2.57.99 3.91.04.22.06.44.08.66.02.15.03.3.04.46.02.16.03.32.03.49.01.26.02.53.02.79z" fill="#dff6fd"/><path d="m378.259 39.13c0 3.72-1.18 7.5-3.69 10.76-5.27 6.83-11.61 12.82-18.82 17.71-13.54 9.18-29.52 14.09-45.87 14.09l-13.48-20.45-6.48-9.83 5.13-13.21 1.35 2.04 13.48 20.45c16.35 0 32.33-4.91 45.87-14.09 7.21-4.89 13.55-10.88 18.82-17.71.07-.1.15-.19.21-.29.98 1.3 1.75 2.73 2.32 4.22.48 1.26.81 2.57.99 3.91.04.22.06.44.08.66.02.15.03.3.04.46.02.16.03.32.03.49.01.26.02.53.02.79z" fill="#c8effe"/><path d="m309.879.57v126.05l-10.17 48.79-164.54-15.15-5.97-.55-14.03-33.09v-126.1c.04-.01.07-.02.11-.02 1.8-.33 3.66-.5 5.55-.5h31.4c4.03 0 7.68 1.64 10.32 4.28s4.28 6.29 4.28 10.32c0 12.62 5.12 24.04 13.38 32.32 8.28 8.26 19.7 13.38 32.32 13.38s24.04-5.12 32.31-13.38c8.27-8.28 13.38-19.7 13.38-32.32 0-8.06 6.54-14.6 14.6-14.6h31.14c1.95 0 3.86.18 5.72.53.06.01.13.02.2.04z" fill="#df75a5"/><path d="m135.169 0v180.3l-13.89-14.84-6.11-38.84v-126.1c.04-.01.07-.02.11-.02 1.8-.33 3.66-.5 5.55-.5z" fill="#dd5790"/><path d="m309.879 126.62v53.68h-194.71l17.474-25.566-17.474-28.114z" fill="#dff6fd"/><path d="m135.169 156.3v-29.68h-20v53.68h20 174.71v-20h-170.71c-2.21 0-4-1.791-4-4z" fill="#c7eefd"/><path d="m115.009 180.277-112.905 245.087c-6.005 13.035 1.219 27.531 16.869 33.926 42.019 17.17 109.02 37.714 193.407 37.71 84.614-.004 151.763-20.664 193.818-37.897 15.635-6.407 22.842-20.899 16.831-33.926l-113.002-244.9z" fill="#df75a5"/><g fill="#dd5790"><path d="m22.669 460.78c-1.25-.5-2.48-1-3.69-1.49-15.66-6.4-22.88-20.89-16.87-33.93l112.9-245.08h20l-112.9 259.4c-3.09 7.08-2.68 14.58.56 21.1z"/><path d="m156.019 180.28h15.68l-91.5 299.51c-4.96-1.31-9.78-2.67-14.44-4.06z"/><path d="m204.879 180.28h15v316.66c-2.48.04-4.98.06-7.5.06s-5.02-.02-7.5-.06z"/><path d="m358.919 475.75c-4.67 1.39-9.49 2.75-14.45 4.06l-91.5-299.53h15.69z"/></g></g></svg>