<svg height="512" viewBox="0 0 128 128" width="512" xmlns="http://www.w3.org/2000/svg"><g><path d="m85.75 42.667 9.75 8.311v13.022h-19.5v-13.022z" fill="#eaeaf0"/><path d="m82.75 57h6v7h-6z" fill="#c1c1c5" transform="matrix(-1 0 0 -1 171.5 121)"/><path d="m111.25 64 10.25 57.5h-115l10.25-57.5z" fill="#c7e554"/><path d="m70.75 64 1.464 57.5h-16.428l1.464-57.5z" fill="#a2ba44"/><path d="m84.25 64 4.393 57.5h-16.429l-1.464-57.5z" fill="#c7e554"/><path d="m97.75 64 7.321 57.5h-16.428l-4.393-57.5z" fill="#a2ba44"/><path d="m111.25 64 10.25 57.5h-16.429l-7.321-57.5z" fill="#c7e554"/><path d="m43.75 64-4.393 57.5h16.429l1.464-57.5z" fill="#c7e554"/><path d="m30.25 64-7.321 57.5h16.428l4.393-57.5z" fill="#a2ba44"/><path d="m16.75 64-10.25 57.5h16.429l7.321-57.5z" fill="#c7e554"/><path d="m96.742 20.706v.021a6.44 6.44 0 0 1 -6.44 6.44h-13.867a5.28 5.28 0 0 1 -5.216-4.035 5.194 5.194 0 0 1 5.063-6.339 4.872 4.872 0 0 1 .794.068 6.635 6.635 0 0 1 12.524-1.161 5.072 5.072 0 0 1 2.41-.369 5.322 5.322 0 0 1 4.732 5.375z" fill="#4575bb"/><path d="m113.89 15.456v.021a6.439 6.439 0 0 1 -6.439 6.44h-13.867a5.279 5.279 0 0 1 -5.216-4.035 5.194 5.194 0 0 1 5.062-6.339 4.872 4.872 0 0 1 .794.068 6.636 6.636 0 0 1 12.528-1.158 5.07 5.07 0 0 1 2.409-.369 5.322 5.322 0 0 1 4.729 5.372z" fill="#5590e6"/><path d="m40.484 26.555h-4.508a8.78 8.78 0 0 0 -1.3-3.143l3.189-3.189a1.75 1.75 0 0 0 -2.474-2.475l-3.191 3.189a8.805 8.805 0 0 0 -3.143-1.3v-4.512a1.75 1.75 0 0 0 -3.5 0v4.508a8.792 8.792 0 0 0 -3.144 1.3l-3.188-3.189a1.75 1.75 0 0 0 -2.475 2.475l3.189 3.188a8.792 8.792 0 0 0 -1.3 3.144h-4.514a1.75 1.75 0 0 0 0 3.5h4.508a8.805 8.805 0 0 0 1.3 3.143l-3.189 3.189a1.75 1.75 0 1 0 2.475 2.474l3.189-3.189a8.78 8.78 0 0 0 3.143 1.3v4.508a1.75 1.75 0 0 0 3.5 0v-4.5a8.793 8.793 0 0 0 3.142-1.3l3.19 3.189a1.749 1.749 0 0 0 2.474-2.474l-3.185-3.191a8.805 8.805 0 0 0 1.3-3.143h4.508a1.75 1.75 0 0 0 0-3.5z" fill="#f4d844"/><path d="m121.5 65.75h-115a1.75 1.75 0 0 1 0-3.5h115a1.75 1.75 0 0 1 0 3.5z" fill="#c1c1c5"/></g></svg>