<svg id="Layer_1" enable-background="new 0 0 511.986 511.986" height="512" viewBox="0 0 511.986 511.986" width="512" xmlns="http://www.w3.org/2000/svg"><g><g><path d="m240.993 336.43h30v65.936h-30z" fill="#8c4a50"/></g><path d="m255.993 336.43h15v65.936h-15z" fill="#66333e"/><g><path d="m374.409 336.43h30v65.936h-30z" fill="#8c4a50"/></g><g><path d="m374.409 336.43h30v65.936h-30z" fill="#66333e"/></g><g><path d="m107.577 336.43h30v65.936h-30z" fill="#8c4a50"/></g><path d="m511.98 291.427-122.571-262.142-82.553 176.555 36.426 145.59h168.698l-28.056-60.003z" fill="#00cc76"/><path d="m511.98 291.427-122.571-262.142-82.553 176.555 36.426 145.59h168.698l-28.056-60.003z" fill="#00aa95"/><path d="m122.577 29.285-122.571 262.142h28.057l-28.057 60.003h168.698l36.426-145.59z" fill="#00cc76"/><path d="m374.564 291.427-118.571-262.142-118.57 262.142h28.056l-28.056 60.003h237.141l-28.056-60.003z" fill="#00aa95"/><path d="m0 387.366h511.986v95.335h-511.986z" fill="#a5e887"/><path d="m346.508 291.427h28.056l-118.571-262.142v322.145h118.571z" fill="#008285"/><path d="m255.993 387.366h255.993v95.335h-255.993z" fill="#00cc76"/></g></svg>