<svg id="Capa_1" enable-background="new 0 0 512 512" height="512" viewBox="0 0 512 512" width="512" xmlns="http://www.w3.org/2000/svg"><g><path d="m286.498 394.937h-56.439v-313.851l28.219 15.124 28.22-15.124z" fill="#c38959"/><path d="m230.059 81.086h25.706v313.851h-25.706z" fill="#b17a4a"/><path d="m512 488.975-.012.014c-27.233 30.682-75.154 30.682-102.387 0l-.012-.014-.003.003c-27.233 30.686-75.159 30.687-102.393.001l-.003-.004c-27.234 30.687-75.161 30.687-102.394 0l-.003.003c-27.234 30.686-75.16 30.686-102.393-.001l-.002-.002-.003.003c-27.234 30.686-75.159 30.686-102.393 0l-.002-.003v-123.867l.002.003c27.233 30.687 75.159 30.687 102.393 0l.003-.003.002.002c27.233 30.687 75.159 30.687 102.393.001l.003-.003c27.234 30.688 75.16 30.688 102.394 0l.003.004c27.234 30.686 75.159 30.686 102.393-.001l.003-.003.012.014c27.233 30.682 75.154 30.682 102.387 0l.012-.014" fill="#90d8f9"/><path d="m336.026 350.489h-155.495c-39.532 0-71.579 32.047-71.579 71.579v39.415h298.653v-39.415c0-39.532-32.047-71.579-71.579-71.579z" fill="#ffe07d"/><path d="m256.294 350.487c-39.537 0-71.581 32.044-71.581 71.581v39.416h-75.762v-39.416c0-39.537 32.053-71.581 71.581-71.581z" fill="#ffd064"/><g><path d="m348.418 0c-49.783 0-90.139 40.357-90.139 90.139-.001-49.782-40.357-90.139-90.14-90.139-49.782 0-90.139 40.357-90.139 90.139v16.901h180.279 180.279v-16.901c-.001-49.782-40.358-90.139-90.14-90.139z" fill="#6ec17d"/><g fill="#9bd069"><path d="m258.276 107.044-35.484 45.133-17.673-13.894c-7.268-5.719-17.799-4.459-23.517 2.809-5.719 7.281-4.459 17.811 2.809 23.53l17.673 13.894-16.715 21.25-14.083-11.085c-7.281-5.719-17.811-4.459-23.53 2.809-5.719 7.281-4.459 17.811 2.809 23.53l14.095 11.085-17.811 22.648-13.289-10.443c-39.137-30.773-45.914-87.444-15.141-126.581 30.773-39.124 87.444-45.914 126.568-15.141z"/><path d="m258.278 107.04 35.484 45.133 17.673-13.894c7.268-5.719 17.799-4.459 23.517 2.809 5.719 7.281 4.459 17.811-2.809 23.53l-17.673 13.894 16.715 21.25 14.083-11.085c7.281-5.719 17.811-4.459 23.53 2.809 5.719 7.281 4.459 17.811-2.809 23.53l-14.095 11.085 17.811 22.648 13.289-10.442c39.137-30.773 45.914-87.444 15.141-126.581-30.773-39.124-87.444-45.914-126.568-15.141z"/></g></g><path d="m43.027 271.981c-4.268 0-7.726-3.459-7.726-7.726 0-12.93-10.519-23.448-23.449-23.448-4.268 0-7.726-3.459-7.726-7.726s3.459-7.726 7.726-7.726c12.742 0 24.075 6.16 31.175 15.656 7.1-9.496 18.432-15.656 31.174-15.656 4.268 0 7.726 3.459 7.726 7.726s-3.459 7.726-7.726 7.726c-12.93 0-23.448 10.519-23.448 23.448.001 4.267-3.458 7.726-7.726 7.726z" fill="#5766cb"/><path d="m104.119 310.339c-4.268 0-7.726-3.459-7.726-7.726 0-12.93-10.519-23.448-23.449-23.448-4.268 0-7.726-3.459-7.726-7.726s3.459-7.726 7.726-7.726c12.742 0 24.075 6.16 31.175 15.656 7.1-9.496 18.432-15.656 31.174-15.656 4.268 0 7.726 3.459 7.726 7.726s-3.459 7.726-7.726 7.726c-12.93 0-23.448 10.519-23.448 23.448 0 4.267-3.459 7.726-7.726 7.726z" fill="#5766cb"/><path d="m468.724 190.095c-4.268 0-7.726-3.459-7.726-7.726 0-12.93-10.518-23.448-23.448-23.448-4.268 0-7.726-3.459-7.726-7.726s3.459-7.726 7.726-7.726c12.742 0 24.074 6.16 31.174 15.656 7.1-9.496 18.433-15.656 31.175-15.656 4.268 0 7.726 3.459 7.726 7.726s-3.459 7.726-7.726 7.726c-12.93 0-23.449 10.519-23.449 23.448.001 4.266-3.458 7.726-7.726 7.726z" fill="#5766cb"/><path d="m512 423.51-.012.014c-27.233 30.682-75.154 30.682-102.387 0l-.012-.014-.003.003c-27.233 30.686-75.159 30.687-102.393.001l-.003-.004c-27.234 30.687-75.161 30.687-102.394 0l-.003.003c-27.234 30.686-75.16 30.686-102.393-.001l-.002-.002-.003.003c-27.234 30.686-75.159 30.686-102.393 0l-.002-.003v65.465l.002.003c27.233 30.687 75.159 30.687 102.393 0l.003-.003.002.002c27.233 30.687 75.159 30.687 102.393.001l.003-.003c27.234 30.688 75.16 30.688 102.394 0l.003.004c27.234 30.686 75.159 30.686 102.393-.001l.003-.003.012.014c27.233 30.682 75.154 30.682 102.387 0l.012-.014" fill="#b1e4f9"/><g fill="#ffd064"><path d="m340.497 396.497c-4.268 0-7.726-3.459-7.726-7.726v-.515c0-4.267 3.459-7.726 7.726-7.726s7.726 3.459 7.726 7.726v.515c0 4.267-3.458 7.726-7.726 7.726z"/><path d="m354.885 414.996c-4.268 0-7.726-3.459-7.726-7.726v-.515c0-4.267 3.459-7.726 7.726-7.726s7.726 3.459 7.726 7.726v.515c.001 4.267-3.458 7.726-7.726 7.726z"/><path d="m365.163 395.18c-4.268 0-7.726-3.459-7.726-7.726v-.515c0-4.267 3.459-7.726 7.726-7.726 4.268 0 7.726 3.459 7.726 7.726v.515c0 4.266-3.458 7.726-7.726 7.726z"/></g></g></svg>