<svg id="Capa_1" enable-background="new 0 0 512 512" height="512" viewBox="0 0 512 512" width="512" xmlns="http://www.w3.org/2000/svg"><g><path d="m220 512h-205c-8.284 0-15-6.716-15-15v-88.15c0-38.229 11.329-75.169 32.761-106.825 21.432-31.657 51.522-55.894 87.018-70.092l89.88-35.952c5.298-2.119 9.382-6.205 11.5-11.504s1.973-11.074-.406-16.261c-23.412-51.035-14.023-110.756 23.918-152.146l10.272-11.206c2.841-3.099 6.852-4.864 11.057-4.864h90c5.766 0 11.021 3.305 13.52 8.502 2.498 5.197 1.795 11.365-1.807 15.868-29.451 36.814-32.004 88.125-6.353 127.681 17.067 26.32 21.998 58.737 13.526 88.941s-29.542 55.328-57.808 68.932c-49.86 23.998-82.078 75.259-82.078 130.593v56.483c0 8.284-6.716 15-15 15z" fill="#bceaf9"/><path d="m367.713 24.371c3.602-4.503 4.304-10.671 1.807-15.868-2.499-5.198-7.754-8.503-13.52-8.503h-90c-3.708 0-7.263 1.376-10 3.825v361.862c14.331-23.72 35.346-43.378 61.078-55.762 28.266-13.604 49.336-38.729 57.808-68.932 8.472-30.204 3.542-62.621-13.526-88.941-25.652-39.556-23.098-90.867 6.353-127.681z" fill="#86beec"/><path d="m447 211c-8.284 0-15-6.716-15-15v-40c0-8.284 6.716-15 15-15s15 6.716 15 15v40c0 8.284-6.716 15-15 15z" fill="#af8663"/><path d="m462 196v-40c0-8.284-6.716-15-15-15v70c8.284 0 15-6.716 15-15z" fill="#896645"/><path d="m447 171c-30.327 0-55-24.673-55-55v-40c0-30.327 24.673-55 55-55s55 24.673 55 55v40c0 30.327-24.673 55-55 55z" fill="#00cb75"/><path d="m502 116v-40c0-30.327-24.673-55-55-55v150c30.327 0 55-24.673 55-55z" fill="#00a763"/><path d="m327 512c-8.284 0-15-6.716-15-15v-40c0-8.284 6.716-15 15-15s15 6.716 15 15v40c0 8.284-6.716 15-15 15z" fill="#af8663"/><path d="m342 497v-40c0-8.284-6.716-15-15-15v70c8.284 0 15-6.716 15-15z" fill="#896645"/><path d="m457 512c-8.284 0-15-6.716-15-15v-40c0-8.284 6.716-15 15-15s15 6.716 15 15v40c0 8.284-6.716 15-15 15z" fill="#af8663"/><path d="m472 497v-40c0-8.284-6.716-15-15-15v70c8.284 0 15-6.716 15-15z" fill="#896645"/><path d="m457 472c-30.327 0-55-24.673-55-55v-40c0-30.327 24.673-55 55-55s55 24.673 55 55v40c0 30.327-24.673 55-55 55z" fill="#00cb75"/><path d="m512 417v-40c0-30.327-24.673-55-55-55v150c30.327 0 55-24.673 55-55z" fill="#00a763"/><path d="m327 472c-24.813 0-45-20.187-45-45v-30c0-24.813 20.187-45 45-45s45 20.187 45 45v30c0 24.813-20.187 45-45 45z" fill="#00cb75"/><path d="m372 427v-30c0-24.813-20.187-45-45-45v120c24.813 0 45-20.187 45-45z" fill="#00a763"/><g><path d="m105 190c-8.284 0-15-6.716-15-15v-38c0-8.284 6.716-15 15-15s15 6.716 15 15v38c0 8.284-6.716 15-15 15z" fill="#af8663"/><path d="m120 175v-38c0-8.284-6.716-15-15-15v68c8.284 0 15-6.716 15-15z" fill="#896645"/><path d="m105 152c-30.327 0-55-24.673-55-55v-42c0-30.327 24.673-55 55-55s55 24.673 55 55v42c0 30.327-24.673 55-55 55z" fill="#00cb75"/><path d="m160 97v-42c0-30.327-24.673-55-55-55v152c30.327 0 55-24.673 55-55z" fill="#00a763"/></g><path d="m290 255h-40c-8.284 0-15-6.716-15-15s6.716-15 15-15h40c8.284 0 15 6.716 15 15s-6.716 15-15 15z" fill="#86beec"/><path d="m357.283 145.213h-63.727c-8.284 0-15 6.716-15 15s6.716 15 15 15h79.185c-2.841-8.072-6.641-15.852-11.38-23.162-1.454-2.241-2.805-4.525-4.078-6.838z" fill="#6ba7ff"/><path d="m279 90c0-8.284-6.716-15-15-15h-51.455c-2.562 9.807-4.041 19.866-4.412 30h55.867c8.284 0 15-6.716 15-15z" fill="#86beec"/><path d="m290 225h-34v30h34c8.284 0 15-6.716 15-15s-6.716-15-15-15z" fill="#6ba7ff"/><path d="m264 75h-8v30h8c8.284 0 15-6.716 15-15s-6.716-15-15-15z" fill="#6ba7ff"/><g fill="#86beec"><path d="m171.108 396.208h-40c-8.284 0-15-6.716-15-15s6.716-15 15-15h40c8.284 0 15 6.716 15 15s-6.715 15-15 15z"/><path d="m90 437c0-8.284-6.716-15-15-15h-75v30h75c8.284 0 15-6.716 15-15z"/><path d="m165 300c0-8.284-6.716-15-15-15h-104.276c-4.612 5.402-8.94 11.083-12.963 17.025-2.866 4.233-5.545 8.563-8.046 12.975h125.285c8.284 0 15-6.716 15-15z"/></g></g></svg>