<svg id="Layer_1" enable-background="new 0 0 497 497" height="512" viewBox="0 0 497 497" width="512" xmlns="http://www.w3.org/2000/svg"><g><g><g><path d="m325.054 14.851c94.963 0 171.946 64.791 171.946 144.716s-76.983 73.966-171.946 73.966h-153.108v-218.682z" fill="#f0a346"/><path d="m325.054 14.851h-40c94.963 0 171.946 64.791 171.946 144.716 0 64.931-50.808 73.179-120.789 73.989 89.762.314 160.789 2.78 160.789-73.989 0-79.925-76.983-144.716-171.946-144.716z" fill="#eb8f21"/><path d="m343.893 159.567c0 79.925-76.983 73.966-171.946 73.966s-171.947 5.958-171.947-73.966 76.983-144.716 171.946-144.716 171.947 64.791 171.947 144.716z" fill="#fff4db"/><g><path d="m70.498 107.912c9.652 0 9.668-15 0-15-9.652 0-9.668 15 0 15z" fill="#edcb7e"/></g><g><path d="m208.045 75.17c9.652 0 9.668-15 0-15-9.651 0-9.667 15 0 15z" fill="#edcb7e"/></g><g><path d="m291.485 142.658c9.652 0 9.668-15 0-15-9.652 0-9.668 15 0 15z" fill="#edcb7e"/></g><g><path d="m73.868 194.958c9.652 0 9.668-15 0-15-9.651 0-9.667 15 0 15z" fill="#edcb7e"/></g><g><path d="m245.619 174.625c9.652 0 9.668-15 0-15-9.651 0-9.667 15 0 15z" fill="#edcb7e"/></g></g></g><g><path d="m149.719 138.489c9.652 0 9.668-15 0-15-9.651 0-9.667 15 0 15z" fill="#edcb7e"/></g><g><g><path d="m497 293.296c0-13.522 0-41.638 0-41.638-28.187-15.648-104.541-11.486-171.946-11.486-67.468 0-143.789-4.209-171.946 11.486v41.638c0 46.598 76.983 84.373 171.946 84.373s171.946-37.775 171.946-84.373z" fill="#eb8f21"/><path d="m497 251.657c0-46.598-76.983-43.124-171.946-43.124s-171.946-3.474-171.946 43.124 76.983 84.373 171.946 84.373 171.946-37.775 171.946-84.373z" fill="#ffe7b0"/><g><path d="m336.212 208.52c69.98.472 120.788 5.282 120.788 43.137 0 43.278-66.407 78.939-151.946 83.802 6.563.373 13.234.571 20 .571 94.963 0 171.946-37.775 171.946-84.373 0-44.757-71.027-43.32-160.788-43.137z" fill="#ffdb87"/></g></g><g><path d="m384.063 256.608c9.652 0 9.668-15 0-15-9.652 0-9.668 15 0 15z" fill="#edcb7e"/></g><g><path d="m433.063 281.608c9.652 0 9.668-15 0-15-9.652 0-9.668 15 0 15z" fill="#edcb7e"/></g></g><g><g><path d="m330.012 297.771c-6.034-12.101-18.58-37.263-18.58-37.263-32.208-1.426-98.68 36.371-159.003 66.45-60.378 30.106-130.557 60.397-148.752 87.007 0 0 12.56 25.189 18.58 37.263 20.794 41.701 106.544 41.154 191.528-1.222s137.021-110.534 116.227-152.235z" fill="#f0a346"/><path d="m311.431 260.508c-20.794-41.701-88.137-4.24-173.121 38.136s-155.427 73.62-134.633 115.321 106.544 41.154 191.528-1.222 137.02-110.534 116.226-152.235z" fill="#fff4db"/><path d="m311.431 260.508c-9.453-18.957-28.528-21.552-54.504-14.765 6.085 2.878 10.969 7.675 14.504 14.765 20.794 41.701-31.243 109.859-116.227 152.235-34.692 17.299-69.51 27.624-99.986 30.953 37.379 4.905 88.818-5.438 139.986-30.953 84.984-42.376 137.021-110.534 116.227-152.235z" fill="#ffecbf"/></g><g><path d="m66.918 400.491c9.652 0 9.668-15 0-15-9.651 0-9.667 15 0 15z" fill="#edcb7e"/></g><g><path d="m165.766 388.077c9.652 0 9.668-15 0-15-9.652 0-9.668 15 0 15z" fill="#edcb7e"/></g><g><path d="m209.225 316.123c9.652 0 9.668-15 0-15-9.652 0-9.668 15 0 15z" fill="#edcb7e"/></g><g><path d="m264.231 316.631c9.652 0 9.668-15 0-15-9.652 0-9.667 15 0 15z" fill="#edcb7e"/></g></g></g></svg>