<svg id="Capa_1" enable-background="new 0 0 510 510" height="512" viewBox="0 0 510 510" width="512" xmlns="http://www.w3.org/2000/svg" xmlns:xlink="http://www.w3.org/1999/xlink"><linearGradient id="lg1"><stop offset="0" stop-color="#f8f6fb"/><stop offset="1" stop-color="#efdcfb"/></linearGradient><linearGradient id="SVGID_1_" gradientUnits="userSpaceOnUse" x1="256.05" x2="257.917" xlink:href="#lg1" y1="383.292" y2="414.094"/><linearGradient id="SVGID_2_" gradientUnits="userSpaceOnUse" x1="216.03" x2="352.324" xlink:href="#lg1" y1="181.097" y2="384.148"/><linearGradient id="SVGID_3_" gradientUnits="userSpaceOnUse" x1="224.022" x2="260.022" xlink:href="#lg1" y1="94.882" y2="240.216"/><linearGradient id="lg2"><stop offset="0" stop-color="#bada00"/><stop offset=".2269" stop-color="#b0ce00"/><stop offset=".6378" stop-color="#95ae00"/><stop offset="1" stop-color="#798c00"/></linearGradient><linearGradient id="SVGID_4_" gradientUnits="userSpaceOnUse" x1="261.807" x2="261.807" xlink:href="#lg2" y1="98.241" y2="169.287"/><linearGradient id="lg3"><stop offset="0" stop-color="#8a7889"/><stop offset=".3344" stop-color="#867385"/><stop offset=".7039" stop-color="#7b667b"/><stop offset="1" stop-color="#6e566e"/></linearGradient><linearGradient id="SVGID_5_" gradientUnits="userSpaceOnUse" x1="373.872" x2="384.872" xlink:href="#lg3" y1="141.109" y2="163.109"/><linearGradient id="SVGID_6_" gradientUnits="userSpaceOnUse" x1="231.55" x2="242.55" xlink:href="#lg3" y1="105.621" y2="127.621"/><linearGradient id="SVGID_7_" gradientUnits="userSpaceOnUse" x1="348.969" x2="348.969" xlink:href="#lg1" y1="140.646" y2="177.636"/><linearGradient id="lg4"><stop offset="0" stop-color="#798c00" stop-opacity="0"/><stop offset=".6542" stop-color="#556100" stop-opacity=".654"/><stop offset="1" stop-color="#464f00"/></linearGradient><linearGradient id="SVGID_8_" gradientUnits="userSpaceOnUse" x1="234.771" x2="215.993" xlink:href="#lg4" y1="197.193" y2="86.833"/><linearGradient id="lg5"><stop offset="0" stop-color="#efdcfb" stop-opacity="0"/><stop offset=".0287" stop-color="#e9d6f7" stop-opacity=".029"/><stop offset=".2203" stop-color="#c5b5de" stop-opacity=".22"/><stop offset=".4138" stop-color="#aa9bcb" stop-opacity=".414"/><stop offset=".6078" stop-color="#9688bd" stop-opacity=".608"/><stop offset=".8028" stop-color="#8a7db5" stop-opacity=".803"/><stop offset="1" stop-color="#8679b2"/></linearGradient><linearGradient id="SVGID_9_" gradientUnits="userSpaceOnUse" x1="255" x2="255" xlink:href="#lg5" y1="320.043" y2="-41.571"/><linearGradient id="lg6"><stop offset="0" stop-color="#ff6359"/><stop offset=".2243" stop-color="#fe5b50"/><stop offset=".5952" stop-color="#fc4637"/><stop offset="1" stop-color="#f82814"/></linearGradient><linearGradient id="SVGID_10_" gradientUnits="userSpaceOnUse" x1="339.734" x2="381.109" xlink:href="#lg6" y1="328.737" y2="356.32"/><linearGradient id="SVGID_11_" gradientUnits="userSpaceOnUse" x1="330.141" x2="336.782" xlink:href="#lg2" y1="182.759" y2="260.469"/><linearGradient id="lg7"><stop offset="0" stop-color="#ffd945"/><stop offset=".3126" stop-color="#ffd643"/><stop offset=".5593" stop-color="#ffcc3d"/><stop offset=".7826" stop-color="#fb3"/><stop offset=".9922" stop-color="#ffa426"/><stop offset="1" stop-color="#ffa325"/></linearGradient><linearGradient id="SVGID_12_" gradientTransform="matrix(.707 .707 -.707 .707 808.251 -317.184)" gradientUnits="userSpaceOnUse" x1="-126.546" x2="-93.318" xlink:href="#lg7" y1="722.813" y2="790.683"/><linearGradient id="SVGID_13_" gradientTransform="matrix(-.707 -.707 .707 -.707 1058.001 1635.28)" gradientUnits="userSpaceOnUse" x1="1638.633" x2="1666.273" xlink:href="#lg7" y1="389.041" y2="445.497"/><linearGradient id="SVGID_14_" gradientUnits="userSpaceOnUse" x1="413.475" x2="440.055" xlink:href="#lg6" y1="137.313" y2="191.603"/><linearGradient id="SVGID_15_" gradientUnits="userSpaceOnUse" x1="481.432" x2="418.413" xlink:href="#lg6" y1="225.808" y2="162.789"/><linearGradient id="SVGID_16_" gradientTransform="matrix(.374 .928 -.928 .374 1230.652 1040.513)" gradientUnits="userSpaceOnUse" x1="-1208.33" x2="-1195.075" xlink:href="#lg6" y1="520.102" y2="538.479"/><linearGradient id="SVGID_17_" gradientTransform="matrix(.374 .928 -.928 .374 1230.652 1040.513)" gradientUnits="userSpaceOnUse" x1="-1202.373" x2="-1196.064" xlink:href="#lg6" y1="550.951" y2="559.698"/><linearGradient id="SVGID_18_" gradientTransform="matrix(.374 .928 -.928 .374 1230.652 1040.513)" gradientUnits="userSpaceOnUse" x1="-1191.451" x2="-1185.142" xlink:href="#lg6" y1="523.289" y2="532.036"/><linearGradient id="SVGID_19_" gradientTransform="matrix(.374 .928 -.928 .374 1230.652 1040.513)" gradientUnits="userSpaceOnUse" x1="-1192.773" x2="-1186.463" xlink:href="#lg6" y1="502.929" y2="511.676"/><linearGradient id="SVGID_20_" gradientTransform="matrix(.374 .928 -.928 .374 1230.652 1040.513)" gradientUnits="userSpaceOnUse" x1="-1195.053" x2="-1185.256" xlink:href="#lg6" y1="551.787" y2="565.368"/><linearGradient id="SVGID_21_" gradientTransform="matrix(.374 .928 -.928 .374 1230.652 1040.513)" gradientUnits="userSpaceOnUse" x1="-1204.559" x2="-1196.826" xlink:href="#lg6" y1="535.531" y2="546.252"/><linearGradient id="SVGID_22_" gradientTransform="matrix(.374 .928 -.928 .374 1230.652 1040.513)" gradientUnits="userSpaceOnUse" x1="-1204.559" x2="-1196.826" xlink:href="#lg6" y1="508.799" y2="519.521"/><linearGradient id="SVGID_23_" gradientTransform="matrix(.374 .928 -.928 .374 1230.652 1040.513)" gradientUnits="userSpaceOnUse" x1="-1196.993" x2="-1192.33" xlink:href="#lg6" y1="531.796" y2="538.26"/><linearGradient id="SVGID_24_" gradientTransform="matrix(.707 .707 -.707 .707 808.251 -317.184)" gradientUnits="userSpaceOnUse" x1="-55.463" x2="-27.083" xlink:href="#lg7" y1="686.882" y2="744.85"/><linearGradient id="SVGID_25_" gradientTransform="matrix(-.707 -.707 .707 -.707 1058.001 1635.28)" gradientUnits="userSpaceOnUse" x1="1574.132" x2="1597.739" xlink:href="#lg7" y1="438.417" y2="486.635"/><linearGradient id="SVGID_26_" gradientTransform="matrix(.964 .268 -.268 .964 748.087 482.586)" gradientUnits="userSpaceOnUse" x1="-672.874" x2="-646.518" xlink:href="#lg6" y1="-168.759" y2="-114.925"/><linearGradient id="lg8"><stop offset="0" stop-color="#ffdecf"/><stop offset=".3791" stop-color="#fdc4b0"/><stop offset=".7655" stop-color="#fbae97"/><stop offset="1" stop-color="#faa68e"/></linearGradient><linearGradient id="SVGID_27_" gradientTransform="matrix(.707 .707 -.707 .707 808.251 -317.184)" gradientUnits="userSpaceOnUse" x1="21.654" x2="54.882" xlink:href="#lg8" y1="596.004" y2="663.874"/><linearGradient id="SVGID_28_" gradientTransform="matrix(-.707 -.707 .707 -.707 1058.001 1635.28)" gradientUnits="userSpaceOnUse" x1="1490.433" x2="1518.073" xlink:href="#lg8" y1="515.851" y2="572.307"/><linearGradient id="SVGID_29_" gradientTransform="matrix(.707 .707 -.707 .707 808.251 -317.184)" gradientUnits="userSpaceOnUse" x1="-180.932" x2="-152.57" xlink:href="#lg8" y1="822.296" y2="880.227"/><linearGradient id="SVGID_30_" gradientTransform="matrix(-.707 -.707 .707 -.707 1058.001 1635.28)" gradientUnits="userSpaceOnUse" x1="1699.626" x2="1723.218" xlink:href="#lg8" y1="303.052" y2="351.24"/><linearGradient id="SVGID_31_" gradientUnits="userSpaceOnUse" x1="330.14" x2="336.782" xlink:href="#lg2" y1="182.757" y2="260.46"/><linearGradient id="SVGID_32_" gradientUnits="userSpaceOnUse" x1="372.013" x2="369.013" xlink:href="#lg4" y1="221.88" y2="98.547"/><linearGradient id="SVGID_33_" gradientUnits="userSpaceOnUse" x1="326.667" x2="225.592" xlink:href="#lg4" y1="269.439" y2="190.165"/><linearGradient id="SVGID_34_" gradientUnits="userSpaceOnUse" x1="309.591" x2="320.591" xlink:href="#lg3" y1="197.493" y2="219.493"/><linearGradient id="SVGID_35_" gradientUnits="userSpaceOnUse" x1="407.085" x2="418.085" xlink:href="#lg3" y1="204.421" y2="226.421"/><linearGradient id="SVGID_36_" gradientTransform="matrix(.745 .667 -.667 .745 767.702 -1594.196)" gradientUnits="userSpaceOnUse" x1="822.31" x2="831.842" xlink:href="#lg8" y1="1600.322" y2="1613.536"/><linearGradient id="SVGID_37_" gradientTransform="matrix(.745 .667 -.667 .745 767.702 -1594.196)" gradientUnits="userSpaceOnUse" x1="814.248" x2="821.772" xlink:href="#lg8" y1="1607.869" y2="1618.301"/><linearGradient id="SVGID_38_" gradientTransform="matrix(.745 .667 -.667 .745 767.702 -1594.196)" gradientUnits="userSpaceOnUse" x1="820.473" x2="825.01" xlink:href="#lg8" y1="1621.816" y2="1628.106"/><linearGradient id="SVGID_39_" gradientTransform="matrix(.745 .667 -.667 .745 767.702 -1594.196)" gradientUnits="userSpaceOnUse" x1="843.694" x2="853.226" xlink:href="#lg8" y1="1622.746" y2="1635.961"/><linearGradient id="SVGID_40_" gradientTransform="matrix(.745 .667 -.667 .745 767.702 -1594.196)" gradientUnits="userSpaceOnUse" x1="858.677" x2="866.203" xlink:href="#lg8" y1="1596.353" y2="1606.785"/><linearGradient id="SVGID_41_" gradientTransform="matrix(.745 .667 -.667 .745 767.702 -1594.196)" gradientUnits="userSpaceOnUse" x1="834.653" x2="839.19" xlink:href="#lg8" y1="1601.083" y2="1607.373"/><linearGradient id="SVGID_42_" gradientTransform="matrix(.745 .667 -.667 .745 767.702 -1594.196)" gradientUnits="userSpaceOnUse" x1="831.139" x2="838.183" xlink:href="#lg8" y1="1615.435" y2="1625.201"/><linearGradient id="SVGID_43_" gradientTransform="matrix(.745 .667 -.667 .745 767.702 -1594.196)" gradientUnits="userSpaceOnUse" x1="833.278" x2="838.839" xlink:href="#lg8" y1="1608.172" y2="1615.882"/><linearGradient id="SVGID_44_" gradientTransform="matrix(.745 .667 -.667 .745 767.702 -1594.196)" gradientUnits="userSpaceOnUse" x1="825.301" x2="828.654" xlink:href="#lg8" y1="1611.153" y2="1615.801"/><linearGradient id="SVGID_45_" gradientTransform="matrix(.745 .667 -.667 .745 767.702 -1594.196)" gradientUnits="userSpaceOnUse" x1="884.139" x2="893.671" xlink:href="#lg8" y1="1581.534" y2="1594.748"/><linearGradient id="SVGID_46_" gradientTransform="matrix(.745 .667 -.667 .745 767.702 -1594.196)" gradientUnits="userSpaceOnUse" x1="874.617" x2="882.142" xlink:href="#lg8" y1="1617.766" y2="1628.198"/><linearGradient id="SVGID_47_" gradientTransform="matrix(.745 .667 -.667 .745 767.702 -1594.196)" gradientUnits="userSpaceOnUse" x1="869.65" x2="874.186" xlink:href="#lg8" y1="1603.861" y2="1610.15"/><linearGradient id="SVGID_48_" gradientTransform="matrix(.745 .667 -.667 .745 767.702 -1594.196)" gradientUnits="userSpaceOnUse" x1="906.952" x2="916.484" xlink:href="#lg8" y1="1588.179" y2="1601.394"/><linearGradient id="SVGID_49_" gradientTransform="matrix(.745 .667 -.667 .745 767.702 -1594.196)" gradientUnits="userSpaceOnUse" x1="903.517" x2="911.043" xlink:href="#lg8" y1="1581.447" y2="1591.88"/><linearGradient id="SVGID_50_" gradientTransform="matrix(.745 .667 -.667 .745 767.702 -1594.196)" gradientUnits="userSpaceOnUse" x1="896.482" x2="901.019" xlink:href="#lg8" y1="1582.295" y2="1588.585"/><linearGradient id="SVGID_51_" gradientTransform="matrix(.745 .667 -.667 .745 767.702 -1594.196)" gradientUnits="userSpaceOnUse" x1="884.939" x2="891.984" xlink:href="#lg8" y1="1607.511" y2="1617.276"/><linearGradient id="SVGID_52_" gradientTransform="matrix(.745 .667 -.667 .745 767.702 -1594.196)" gradientUnits="userSpaceOnUse" x1="895.107" x2="900.668" xlink:href="#lg8" y1="1589.384" y2="1597.094"/><linearGradient id="SVGID_53_" gradientTransform="matrix(.745 .667 -.667 .745 767.702 -1594.196)" gradientUnits="userSpaceOnUse" x1="887.13" x2="890.483" xlink:href="#lg8" y1="1592.365" y2="1597.013"/><linearGradient id="SVGID_54_" gradientUnits="userSpaceOnUse" x1="266.162" x2="285.037" xlink:href="#lg1" y1="199.898" y2="259.505"/><linearGradient id="SVGID_55_" gradientUnits="userSpaceOnUse" x1="264.259" x2="316.249" xlink:href="#lg5" y1="202.087" y2="447.135"/><linearGradient id="SVGID_56_" gradientUnits="userSpaceOnUse" x1="233.761" x2="277.473" xlink:href="#lg7" y1="188.005" y2="233.041"/><linearGradient id="SVGID_57_" gradientUnits="userSpaceOnUse" x1="140.122" x2="138.788" xlink:href="#lg2" y1="214.021" y2="272.021"/><linearGradient id="SVGID_58_" gradientUnits="userSpaceOnUse" x1="434.46" x2="384.291" xlink:href="#lg4" y1="280.447" y2="230.278"/><linearGradient id="SVGID_59_" gradientUnits="userSpaceOnUse" x1="387.611" x2="399.35" xlink:href="#lg6" y1="223.001" y2="246.979"/><linearGradient id="SVGID_60_" gradientUnits="userSpaceOnUse" x1="357.491" x2="366.109" y1="235.713" y2="259.651"><stop offset="0" stop-color="#ffa936"/><stop offset=".4112" stop-color="#ff8548"/><stop offset=".7781" stop-color="#ff6c54"/><stop offset="1" stop-color="#ff6359"/></linearGradient><linearGradient id="SVGID_61_" gradientUnits="userSpaceOnUse" x1="162.735" x2="162.978" xlink:href="#lg4" y1="259.747" y2="217.201"/><linearGradient id="SVGID_62_" gradientUnits="userSpaceOnUse" x1="95.112" x2="106.112" xlink:href="#lg3" y1="197.493" y2="219.493"/><linearGradient id="SVGID_63_" gradientUnits="userSpaceOnUse" x1="136.625" x2="157.631" xlink:href="#lg8" y1="213.884" y2="256.791"/><linearGradient id="SVGID_64_" gradientUnits="userSpaceOnUse" x1="170" x2="117.172" xlink:href="#lg8" y1="264.24" y2="211.413"/><linearGradient id="SVGID_65_" gradientUnits="userSpaceOnUse" x1="156.926" x2="166.458" xlink:href="#lg8" y1="146.119" y2="159.333"/><linearGradient id="SVGID_66_" gradientUnits="userSpaceOnUse" x1="148.864" x2="156.388" xlink:href="#lg8" y1="153.666" y2="164.098"/><linearGradient id="SVGID_67_" gradientUnits="userSpaceOnUse" x1="155.089" x2="159.626" xlink:href="#lg8" y1="167.614" y2="173.903"/><linearGradient id="SVGID_68_" gradientUnits="userSpaceOnUse" x1="178.31" x2="187.842" xlink:href="#lg8" y1="168.543" y2="181.758"/><linearGradient id="SVGID_69_" gradientUnits="userSpaceOnUse" x1="193.293" x2="200.819" xlink:href="#lg8" y1="142.15" y2="152.583"/><linearGradient id="SVGID_70_" gradientUnits="userSpaceOnUse" x1="169.269" x2="173.805" xlink:href="#lg8" y1="146.88" y2="153.17"/><linearGradient id="SVGID_71_" gradientUnits="userSpaceOnUse" x1="165.755" x2="172.799" xlink:href="#lg8" y1="161.233" y2="170.999"/><linearGradient id="SVGID_72_" gradientUnits="userSpaceOnUse" x1="167.894" x2="173.455" xlink:href="#lg8" y1="153.969" y2="161.679"/><linearGradient id="SVGID_73_" gradientUnits="userSpaceOnUse" x1="159.917" x2="163.27" xlink:href="#lg8" y1="156.95" y2="161.598"/><linearGradient id="SVGID_74_" gradientUnits="userSpaceOnUse" x1="218.755" x2="228.287" xlink:href="#lg8" y1="127.331" y2="140.545"/><linearGradient id="SVGID_75_" gradientUnits="userSpaceOnUse" x1="209.233" x2="216.758" xlink:href="#lg8" y1="163.563" y2="173.995"/><linearGradient id="SVGID_76_" gradientUnits="userSpaceOnUse" x1="204.266" x2="208.802" xlink:href="#lg8" y1="149.658" y2="155.947"/><linearGradient id="SVGID_77_" gradientUnits="userSpaceOnUse" x1="241.568" x2="251.1" xlink:href="#lg8" y1="133.976" y2="147.191"/><linearGradient id="SVGID_78_" gradientUnits="userSpaceOnUse" x1="238.133" x2="245.659" xlink:href="#lg8" y1="127.245" y2="137.677"/><linearGradient id="SVGID_79_" gradientUnits="userSpaceOnUse" x1="231.098" x2="235.635" xlink:href="#lg8" y1="128.093" y2="134.382"/><linearGradient id="SVGID_80_" gradientUnits="userSpaceOnUse" x1="219.555" x2="226.599" xlink:href="#lg8" y1="153.308" y2="163.074"/><linearGradient id="SVGID_81_" gradientUnits="userSpaceOnUse" x1="229.723" x2="235.284" xlink:href="#lg8" y1="135.182" y2="142.891"/><linearGradient id="SVGID_82_" gradientUnits="userSpaceOnUse" x1="221.746" x2="225.099" xlink:href="#lg8" y1="138.162" y2="142.81"/><g><path d="m255 382.596c-42.1 0-80.737-6.234-111-16.626 4.354 17.221 12.534 30.245 22.62 34.413 22.764 9.408 53.961 15.21 88.38 15.21s65.616-5.802 88.38-15.21c10.086-4.168 18.266-17.192 22.62-34.413-30.263 10.392-68.9 16.626-111 16.626z" fill="url(#SVGID_1_)"/><path d="m510 219.942c0-70.876-510-70.876-510 0s59.927 174.808 255 174.808 255-103.931 255-174.808z" fill="url(#SVGID_2_)"/><path d="m510 219.942c0 70.876-510 70.876-510 0s510-70.876 510 0z" fill="url(#SVGID_3_)"/><path d="m439 168.582c0 75.721-354.385 75.721-354.385 0 0-13.056 10.541-23.858 27.98-32.411 6.335-3.107 12.178-8.15 17.063-14.989l.524-.733c10.622-14.87 26.001-19.043 39.384-10.687l.01.006c11.433 7.139 24.468 5.219 34.772-5.121l.98-.984c11.363-11.402 25.975-12.337 37.935-2.429l.914.757c10.985 9.1 24.285 9.102 35.271.004l.92-.762c11.962-9.906 26.574-8.967 37.937 2.437l1.189 1.193c10.247 10.284 23.223 12.125 34.558 4.904 13.285-8.464 28.621-4.387 39.196 10.419l.711.996c4.885 6.839 10.728 11.883 17.062 14.989 17.439 8.553 27.979 19.356 27.979 32.411z" fill="url(#SVGID_4_)"/><path d="m383.514 141.906c-10.21 0-18.486 8.276-18.486 18.486s8.276 18.486 18.486 18.486c10.209 0 18.486-8.276 18.486-18.486s-8.277-18.486-18.486-18.486zm0 26.333c-4.334 0-7.847-3.513-7.847-7.847s3.513-7.847 7.847-7.847 7.847 3.513 7.847 7.847-3.514 7.847-7.847 7.847z" fill="url(#SVGID_5_)"/><path d="m241.191 106.418c-10.21 0-18.486 8.276-18.486 18.486s8.276 18.486 18.486 18.486c10.209 0 18.486-8.276 18.486-18.486s-8.276-18.486-18.486-18.486zm0 26.332c-4.334 0-7.847-3.513-7.847-7.847s3.513-7.847 7.847-7.847 7.847 3.513 7.847 7.847-3.513 7.847-7.847 7.847z" fill="url(#SVGID_6_)"/><circle cx="348.969" cy="174.915" fill="url(#SVGID_7_)" r="34.545"/><path d="m339.243 220.246-106.25-106.307c-6.65-6.65-14.555-9.273-22.859-12.24-1.69 1.18-3.226.378-4.806 1.964l-.98.984c-10.305 10.34-23.34 12.26-34.772 5.121l-.01-.006c-4.227-2.639-7.653-2.49-12.065-2.687-3.714 2.367-7.06 4.596-10.303 7.839-24.016 24.016-25.193 61.981-1.177 85.998l15.429 15.429c52.093 10.553 121.442 11.856 177.793 3.905z" fill="url(#SVGID_8_)"/><path d="m488.942 219.942c0 52.233-467.884 52.233-467.884 0s467.884-52.232 467.884 0z" fill="url(#SVGID_9_)"/><path d="m6.392 261.007c3.271 10.573 7.881 21.291 14.015 31.825 87.721 38.281 381.464 38.281 469.185 0 6.135-10.534 10.744-21.252 14.015-31.825-67.695 48.537-429.518 48.537-497.215 0z" fill="url(#SVGID_10_)"/><path d="m488.69 217.907c-.49 3.46-1.76 6.82-3.72 10.07-7.563 7.345-25.501 13.391-50.145 18.137-13.441 2.589-28.878-.209-45.713 1.606-15.266 1.646-31.682 7.974-48.804 8.984-26.284 1.55-54.232 2.352-82.238 2.403-24.8.06-78.3-9.68-78.8-14.4-1.29-12.15 6.86-23.18 21.25-32.75 1.59-1.05 3.13-2.27 4.59-3.65 3.35-3.15 6.35-7.13 8.85-11.87l.38-.73c3.87-7.33 9.01-12.33 14.74-14.73 4.93-2.06 10.29-2.18 15.65-.18.99.37 1.98.81 2.96 1.33l.01.01c7.91 4.14 16.11 3.57 23.07-1.29 2.44-1.7 4.73-3.94 6.8-6.68l.76-1.01c8.81-11.66 21.48-13.88 32.9-5.76l.87.62c10.49 7.46 22.11 6.24 30.81-3.24l.73-.8c9.47-10.32 22.33-10.79 33.37-1.22l1.16 1c9.96 8.63 21.47 9.15 30.67 1.38 4.35-3.67 9.19-5.48 14.12-5.48 7.28 0 14.76 3.93 21.14 11.57l.71.86c4.94 5.91 10.54 10.07 16.38 12.38 16.07 6.35 26.34 15.44 27.62 27.59.21 1.98.17 3.94-.12 5.85z" fill="url(#SVGID_11_)"/><g><path d="m232.993 113.939c-24.016-24.016-62.955-24.016-86.972 0s-24.016 62.955 0 86.972c24.016 24.016 62.955 24.016 86.972 0s24.017-62.955 0-86.972zm-71.1 71.101c-15.249-15.249-15.249-39.98 0-55.229s39.974-15.243 55.223.006 15.255 39.974.006 55.223-39.98 15.249-55.229 0z" fill="url(#SVGID_12_)"/><path d="m153.335 193.598c19.975 19.975 52.37 19.975 72.345 0 19.981-19.981 19.975-52.37 0-72.345-19.981-19.981-52.364-19.981-72.345 0-19.975 19.974-19.981 52.364 0 72.345zm63.787-63.788c15.249 15.249 15.249 39.98 0 55.229s-39.974 15.243-55.223-.006-15.255-39.974-.006-55.223 39.98-15.249 55.229 0z" fill="url(#SVGID_13_)"/></g><g><path d="m467.958 142.768c-19.21-19.21-50.356-19.21-69.566 0s-19.21 50.356 0 69.566 50.356 19.21 69.566 0 19.21-50.356 0-69.566zm-56.871 56.871c-12.197-12.197-12.197-31.979 0-44.176s31.974-12.192 44.171.005 12.202 31.974.005 44.171-31.979 12.197-44.176 0z" fill="url(#SVGID_14_)"/><path d="m404.242 206.484c15.977 15.977 41.889 15.977 57.866 0 15.982-15.982 15.977-41.889 0-57.866-15.982-15.982-41.884-15.982-57.866 0-15.977 15.977-15.982 41.884 0 57.866zm51.021-51.021c12.197 12.197 12.197 31.979 0 44.176s-31.974 12.192-44.171-.005-12.202-31.974-.005-44.171 31.979-12.197 44.176 0z" fill="url(#SVGID_15_)"/></g><g><path d="m293.076 124.901c2.642-.085 4.716-2.295 4.631-4.938-.085-2.642-2.295-4.716-4.938-4.631-2.642.085-4.716 2.295-4.631 4.938.085 2.642 2.296 4.716 4.938 4.631z" fill="url(#SVGID_16_)"/><path d="m270.848 133.865c-.04-1.258-1.092-2.245-2.35-2.204-1.258.04-2.244 1.092-2.204 2.35s1.093 2.244 2.35 2.204c1.258-.041 2.245-1.093 2.204-2.35z" fill="url(#SVGID_17_)"/><path d="m300.319 132.659c-.594-1.109-1.975-1.527-3.084-.933s-1.527 1.975-.933 3.084 1.975 1.527 3.084.933c1.109-.593 1.527-1.974.933-3.084z" fill="url(#SVGID_18_)"/><path d="m318.712 123.828c-.594-1.109-1.975-1.527-3.084-.933s-1.527 1.975-.933 3.084 1.975 1.527 3.084.933 1.527-1.975.933-3.084z" fill="url(#SVGID_19_)"/><path d="m272.11 140.267c-1.323-1.438-3.56-1.531-4.998-.208s-1.531 3.56-.208 4.998 3.56 1.531 4.998.208 1.531-3.561.208-4.998z" fill="url(#SVGID_20_)"/><path d="m283.696 124.92c-1.044-1.135-2.811-1.209-3.946-.164-1.135 1.044-1.209 2.811-.164 3.946 1.044 1.135 2.811 1.209 3.946.164 1.134-1.044 1.208-2.811.164-3.946z" fill="url(#SVGID_21_)"/><path d="m308.492 114.934c-1.044-1.135-2.811-1.209-3.946-.164-1.135 1.044-1.209 2.811-.164 3.946 1.044 1.135 2.811 1.209 3.946.164 1.134-1.044 1.208-2.811.164-3.946z" fill="url(#SVGID_22_)"/><path d="m287.594 132.147c.629.684 1.695.729 2.379.099s.729-1.695.099-2.379-1.695-.729-2.379-.099c-.685.63-.729 1.695-.099 2.379z" fill="url(#SVGID_23_)"/></g><g><path d="m304.968 137.41c-20.512-20.512-53.77-20.512-74.282 0s-20.512 53.77 0 74.282 53.77 20.512 74.282 0 20.512-53.77 0-74.282zm-60.727 60.726c-13.024-13.024-13.024-34.147 0-47.171s34.142-13.019 47.166.005 13.029 34.142.005 47.166-34.147 13.024-47.171 0z" fill="url(#SVGID_24_)"/><path d="m236.932 205.445c17.06 17.06 44.729 17.06 61.789 0 17.065-17.065 17.06-44.729 0-61.789-17.066-17.066-44.724-17.066-61.789 0-17.06 17.06-17.066 44.724 0 61.789zm54.48-54.48c13.024 13.024 13.024 34.147 0 47.171s-34.142 13.019-47.166-.005-13.029-34.142-.005-47.166 34.147-13.024 47.171 0z" fill="url(#SVGID_25_)"/></g><path d="m212.241 212.995c-9.089 32.725-127.597-.19-118.507-32.915s42.986-51.885 75.711-42.796 51.886 42.986 42.796 75.711z" fill="url(#SVGID_26_)"/><g><path d="m427.454 129.065c-24.016-24.016-62.955-24.016-86.972 0s-24.016 62.955 0 86.972c24.016 24.016 62.955 24.016 86.972 0s24.017-62.956 0-86.972zm-71.1 71.1c-15.249-15.249-15.249-39.98 0-55.229s39.974-15.243 55.223.006 15.255 39.974.006 55.223-39.98 15.249-55.229 0z" fill="url(#SVGID_27_)"/><path d="m347.796 208.723c19.975 19.975 52.37 19.975 72.345 0 19.981-19.981 19.975-52.37 0-72.345-19.981-19.981-52.364-19.981-72.345 0-19.975 19.975-19.981 52.364 0 72.345zm63.787-63.787c15.249 15.249 15.249 39.98 0 55.229s-39.974 15.243-55.223-.006-15.255-39.974-.006-55.223 39.98-15.249 55.229 0z" fill="url(#SVGID_28_)"/></g><g><path d="m120.482 144.437c-20.499-20.499-53.736-20.499-74.235 0s-20.499 53.736 0 74.235 53.736 20.499 74.235 0 20.499-53.736 0-74.235zm-60.688 60.688c-13.016-13.016-13.016-34.125 0-47.141s34.12-13.011 47.136.005 13.021 34.12.005 47.136-34.126 13.016-47.141 0z" fill="url(#SVGID_29_)"/><path d="m52.489 212.43c17.049 17.049 44.701 17.049 61.75 0 17.055-17.055 17.049-44.701 0-61.75-17.055-17.055-44.696-17.055-61.75 0-17.049 17.049-17.055 44.695 0 61.75zm54.446-54.446c13.016 13.016 13.016 34.125 0 47.141s-34.12 13.011-47.136-.005-13.021-34.12-.005-47.136 34.125-13.016 47.141 0z" fill="url(#SVGID_30_)"/></g><path d="m488.69 217.907c-.49 3.46-1.76 6.82-3.72 10.07-7.571 7.353-25.541 13.404-50.227 18.152-14.222 2.736-30.674-.961-48.65.91-14.41 1.5-29.801 8.722-45.808 9.666-26.277 1.55-54.217 2.35-82.215 2.402-24.8.06-78.3-9.68-78.8-14.4-1.29-12.15 6.86-23.18 21.25-32.75 1.59-1.05 3.13-2.27 4.59-3.65 3.35-3.15 6.35-7.13 8.85-11.87l.38-.73c3.87-7.33 9.01-12.33 14.74-14.73 4.93-2.06 10.29-2.18 15.65-.18.99.37 1.98.81 2.96 1.33l.01.01c7.91 4.14 16.11 3.57 23.07-1.29 2.44-1.7 4.73-3.94 6.8-6.68l.76-1.01c8.81-11.66 21.48-13.88 32.9-5.76l.87.62c10.49 7.46 22.11 6.24 30.81-3.24l.73-.8c9.47-10.32 22.33-10.79 33.37-1.22l1.16 1c9.96 8.63 21.47 9.15 30.67 1.38 4.35-3.67 9.19-5.48 14.12-5.48 7.28 0 14.76 3.93 21.14 11.57l.71.86c4.94 5.91 10.54 10.07 16.38 12.38 16.07 6.35 26.34 15.44 27.62 27.59.21 1.98.17 3.94-.12 5.85z" fill="url(#SVGID_31_)"/><path d="m255.776 257.95c.408.513.514.647.922 1.159 28.414-.027 56.794-.826 83.465-2.396 16.691-.983 32.713-6.267 47.654-7.854 17.307-1.838 33.164-.081 46.932-2.73 24.683-4.748 42.651-10.799 50.221-18.151 1.96-3.25 3.23-6.61 3.72-10.07.29-1.91.33-3.87.12-5.85-.047-.451-.107-.897-.18-1.339-1.654-10.135-10.347-17.377-20.542-18.606-4.764-.574-9.567-2.81-14.055-6.699l-1.16-1c-11.04-9.57-23.9-9.1-33.37 1.22l-.73.8c-8.7 9.48-20.32 10.7-30.81 3.24l-.87-.62c-11.42-8.12-24.09-5.9-32.9 5.76l-.76 1.01c-2.07 2.74-4.36 4.98-6.8 6.68-6.96 4.86-15.16 5.43-23.07 1.29l-.01-.01c-.98-.52-1.97-.96-2.96-1.33-5.36-2-10.72-1.88-15.65.18-5.73 2.4-10.87 7.4-14.74 14.73l-.38.73c-2.5 4.74-5.5 8.72-8.85 11.87-1.46 1.38-3 2.6-4.59 3.65-10.991 7.309-18.325 15.473-20.607 24.336z" fill="url(#SVGID_32_)"/><path d="m397.053 250.49c-17.803 2.138-35.671 3.598-56.847 6.216-26.253 1.546-54.165 2.345-82.136 2.401-24.8.06-78.3-9.68-78.8-14.4-1.29-12.15 6.86-23.18 21.25-32.75 1.59-1.05 3.13-2.27 4.59-3.65 3.35-3.15 6.35-7.13 8.85-11.87l.38-.73c3.87-7.33 9.01-12.33 14.74-14.73 4.93-2.06 10.29-2.18 15.65-.18.99.37 1.98.81 2.96 1.33l.01.01c7.91 4.14 16.11 3.57 23.07-1.29 2.44-1.7 4.73-3.94 6.8-6.68l.76-1.01c8.81-11.66 21.48-13.88 32.9-5.76l.87.62c1.84 1.31 3.71 2.35 5.6 3.12z" fill="url(#SVGID_33_)"/><path d="m319.232 198.29c-10.21 0-18.486 8.276-18.486 18.486s8.276 18.486 18.486 18.486c10.209 0 18.486-8.276 18.486-18.486s-8.276-18.486-18.486-18.486zm0 26.333c-4.334 0-7.847-3.513-7.847-7.847s3.513-7.847 7.847-7.847 7.847 3.513 7.847 7.847-3.513 7.847-7.847 7.847z" fill="url(#SVGID_34_)"/><path d="m416.726 205.218c-10.21 0-18.486 8.276-18.486 18.486s8.276 18.486 18.486 18.486c10.209 0 18.486-8.276 18.486-18.486s-8.277-18.486-18.486-18.486zm0 26.333c-4.334 0-7.847-3.513-7.847-7.847s3.513-7.847 7.847-7.847 7.847 3.513 7.847 7.847-3.513 7.847-7.847 7.847z" fill="url(#SVGID_35_)"/><g><path d="m314.707 155.043c1.677-.895 2.311-2.98 1.416-4.657s-2.98-2.311-4.657-1.416-2.311 2.98-1.416 4.657 2.98 2.311 4.657 1.416z" fill="url(#SVGID_36_)"/><path d="m304.559 149.88c-.707-1.324-2.353-1.825-3.677-1.118s-1.825 2.353-1.118 3.677 2.353 1.825 3.677 1.118 1.824-2.353 1.118-3.677z" fill="url(#SVGID_37_)"/><path d="m299.12 163.3c-.426-.798-1.418-1.1-2.217-.674s-1.1 1.418-.674 2.217 1.418 1.1 2.217.674c.798-.427 1.1-1.419.674-2.217z" fill="url(#SVGID_38_)"/><path d="m316.077 180.177c-1.546-1.106-3.696-.749-4.802.797s-.749 3.696.797 4.802 3.696.749 4.802-.797.749-3.696-.797-4.802z" fill="url(#SVGID_39_)"/><path d="m344.535 169.988c-1.221-.873-2.918-.592-3.791.629s-.592 2.918.629 3.791 2.918.592 3.791-.629.591-2.918-.629-3.791z" fill="url(#SVGID_40_)"/><path d="m323.019 156.739c-.736-.527-1.759-.357-2.286.379-.526.736-.357 1.759.379 2.286.736.526 1.759.357 2.286-.379s.357-1.759-.379-2.286z" fill="url(#SVGID_41_)"/><path d="m310.651 165.425c-1.31-.507-2.783.145-3.29 1.455s.145 2.783 1.455 3.29 2.783-.145 3.29-1.455c.507-1.311-.145-2.784-1.455-3.29z" fill="url(#SVGID_42_)"/><path d="m316.98 161.126c-1.034-.4-2.197.115-2.597 1.149s.115 2.197 1.149 2.597 2.197-.115 2.597-1.149c.4-1.035-.115-2.197-1.149-2.597z" fill="url(#SVGID_43_)"/><path d="m308.014 159.824c.624.241 1.325-.069 1.566-.693s-.069-1.325-.693-1.566-1.325.069-1.566.693.07 1.325.693 1.566z" fill="url(#SVGID_44_)"/><path d="m373.316 182.262c1.677-.895 2.311-2.98 1.416-4.657s-2.98-2.311-4.657-1.416-2.311 2.98-1.416 4.657c.894 1.677 2.98 2.311 4.657 1.416z" fill="url(#SVGID_45_)"/><path d="m342.955 197.505c-.707-1.324-2.353-1.825-3.677-1.118s-1.825 2.353-1.118 3.677 2.353 1.825 3.677 1.118 1.825-2.353 1.118-3.677z" fill="url(#SVGID_46_)"/><path d="m347.743 182.703c-.426-.798-1.418-1.1-2.217-.674-.798.426-1.1 1.418-.674 2.217.426.798 1.418 1.1 2.217.674.798-.426 1.1-1.418.674-2.217z" fill="url(#SVGID_47_)"/><path d="m386.27 196.588c-1.546-1.106-3.696-.749-4.802.797s-.749 3.696.797 4.802 3.696.749 4.802-.797.75-3.696-.797-4.802z" fill="url(#SVGID_48_)"/><path d="m388.522 192.565c.873-1.221.592-2.918-.629-3.791s-2.918-.592-3.791.629-.592 2.918.629 3.791c1.22.873 2.917.591 3.791-.629z" fill="url(#SVGID_49_)"/><path d="m381.628 183.958c-.736-.526-1.759-.357-2.286.379-.526.736-.357 1.759.379 2.286.736.526 1.759.357 2.286-.379.526-.736.356-1.759-.379-2.286z" fill="url(#SVGID_50_)"/><path d="m356.033 195.387c-1.31-.507-2.783.145-3.29 1.455s.145 2.783 1.455 3.29 2.783-.145 3.29-1.455-.145-2.783-1.455-3.29z" fill="url(#SVGID_51_)"/><path d="m375.589 188.345c-1.034-.4-2.197.114-2.597 1.149-.4 1.034.115 2.197 1.149 2.597s2.197-.115 2.597-1.149c.399-1.034-.115-2.197-1.149-2.597z" fill="url(#SVGID_52_)"/><path d="m366.623 187.043c.624.241 1.325-.069 1.566-.693s-.069-1.325-.693-1.566-1.325.069-1.566.693.069 1.325.693 1.566z" fill="url(#SVGID_53_)"/></g><g><path d="m295.247 242.744c-19.438 19.438-50.915 19.475-70.307.083s-19.354-50.869.083-70.307 65.745-34.305 85.137-14.913 4.525 65.699-14.913 85.137z" fill="url(#SVGID_54_)"/><path d="m223.019 240.788c17.528 15.469 45.96 13.231 64.731-5.541 18.484-18.484 34.345-59.744 20.961-78.642-.413-.584-.923-1.097-1.497-1.524-20.79-15.435-63.676-1.075-82.19 17.439-18.772 18.771-19.445 48.768-2.005 68.268z" fill="url(#SVGID_55_)"/><circle cx="250.636" cy="205.391" fill="url(#SVGID_56_)" r="27.892"/></g><path d="m258.07 259.107c-14.669.036-29.353-.139-43.822-.519-3.57-.094-7.126-7.2-10.667-7.319-4.212-.141-8.4 6.7-12.56 6.523-2.132-.09-4.256-.185-6.371-.285-85.64-4.06-157.42-15.73-163.21-35.02-.17-1.12-.28-2.25-.33-3.37-.21-4.08.34-8.16 1.73-12.2 4.25-12.35 14.88-20.12 29.43-24.16 5.28-1.47 10.86-4.88 16.39-10.21l.59-.58c12.01-11.6 23.74-11.97 30.04-.96v.01c5.39 9.41 14.8 10.62 25.12 3.23l.98-.7c11.38-8.15 21.54-5.64 26.37 6.51l.37.93c.47 1.17.99 2.26 1.55 3.25 4.8 8.46 12.96 10.36 22.24 4.94l.87-.51c11.29-6.59 20.84-2.31 24.79 11.12l.41 1.4c.81 2.76 1.86 5.14 3.12 7.12 4.25 6.7 10.87 8.79 18.59 5.55 2.4-1.01 4.69-1.5 6.83-1.5 8.3 0 14.37 7.37 16.2 20.46l.16 1.1c1.06 7.61 3.36 13.73 6.62 18.14 1.73 2.33 3.25 4.69 4.56 7.05z" fill="url(#SVGID_57_)"/><path d="m425.951 229.099c-8.133-8.503-20.383-12.672-32.708-9.933-16.821 3.739-28.057 19.075-27.187 35.729.008-.001.016-.001.024-.002.166-.014 24-4.824 35.24-6.242 11.672-1.473 23.589-.634 33.379-2.516 2.359-.454 4.657-.919 6.891-1.397z" fill="url(#SVGID_58_)"/><path d="m434.744 245.573c-4.168-18.752-22.749-30.575-41.501-26.407-16.821 3.739-28.057 19.075-27.187 35.729 25.882-2.125 49.401-5.053 68.776-8.785-.027-.179-.048-.357-.088-.537z" fill="url(#SVGID_59_)"/><path d="m386.242 250.543c0-12.953-10.501-23.454-23.454-23.454-12.954 0-23.454 10.501-23.454 23.454 0 2.134.291 4.2.824 6.165 16.068-.946 31.493-2.177 45.952-3.682.086-.817.132-1.644.132-2.483z" fill="url(#SVGID_60_)"/><path d="m197.354 226.574c-9.16-9.16-20.583-13.48-32.275-15.575-18.965-3.397-38.992 1.152-53.849 16.009-6.718 6.718-12.4 14.169-15.36 22.569.725.106 1.471.206 2.203.31-.001.002-.002.004-.002.006 25.221 3.576 54.952 6.114 86.579 7.614 2.096.099 4.201.193 6.313.283 4.222.179 8.474-4.66 12.75-4.517 3.488.117 6.992 5.221 10.508 5.313 5.124.134 10.274.243 15.442.326z" fill="url(#SVGID_61_)"/><path d="m104.753 198.29c-10.21 0-18.486 8.276-18.486 18.486s8.276 18.486 18.486 18.486c10.209 0 18.486-8.276 18.486-18.486s-8.276-18.486-18.486-18.486zm0 26.333c-4.334 0-7.847-3.513-7.847-7.847s3.513-7.847 7.847-7.847 7.847 3.513 7.847 7.847-3.513 7.847-7.847 7.847z" fill="url(#SVGID_62_)"/><g><path d="m197.354 226.574c-24.016-24.016-62.955-24.016-86.972 0-6.718 6.718-11.553 14.604-14.513 23.003 7.33 1.068 15.055 2.047 23.111 2.936 1.826-3.63 4.243-7.038 7.273-10.068 15.249-15.249 39.974-15.243 55.223.006 4.458 4.458 7.869 8.738 9.721 14.342 4.187.178 8.136 1.328 12.375 1.47 3.555.119 7.127.226 10.713.32-2.215-11.726-7.855-22.933-16.931-32.009z" fill="url(#SVGID_63_)"/><path d="m190.041 233.888c-19.981-19.981-52.364-19.981-72.345 0-5.049 5.049-8.818 10.893-11.315 17.128 4.098.525 8.304 1.024 12.6 1.498 1.825-3.63 4.243-7.038 7.273-10.068 15.249-15.249 39.98-15.249 55.229 0 4.459 4.459 7.604 9.731 9.455 15.337 4.21.179 8.444.343 12.708.486-2.108-8.935-6.638-17.414-13.605-24.381z" fill="url(#SVGID_64_)"/></g><g><path d="m163.224 151.552c.653-1.785-.264-3.762-2.05-4.416-1.785-.653-3.762.264-4.416 2.05-.653 1.785.264 3.762 2.05 4.415 1.786.654 3.763-.263 4.416-2.049z" fill="url(#SVGID_65_)"/><path d="m152.218 154.47c-1.409-.516-2.97.209-3.486 1.618s.209 2.97 1.618 3.486 2.97-.209 3.486-1.618c.516-1.41-.209-2.971-1.618-3.486z" fill="url(#SVGID_66_)"/><path d="m157.112 168.098c-.85-.311-1.791.126-2.102.976s.126 1.791.975 2.102 1.791-.126 2.102-.975c.311-.851-.126-1.792-.975-2.103z" fill="url(#SVGID_67_)"/><path d="m181.002 169.372c-1.89.206-3.255 1.906-3.048 3.796.206 1.89 1.906 3.255 3.796 3.048 1.89-.206 3.255-1.906 3.048-3.796s-1.906-3.255-3.796-3.048z" fill="url(#SVGID_68_)"/><path d="m195.419 142.804c-1.492.163-2.569 1.504-2.406 2.996s1.504 2.569 2.996 2.406 2.569-1.505 2.406-2.996-1.504-2.569-2.996-2.406z" fill="url(#SVGID_69_)"/><path d="m170.55 147.275c-.9.098-1.549.907-1.451 1.807.098.899.907 1.549 1.807 1.451.899-.098 1.549-.907 1.451-1.807-.099-.9-.908-1.549-1.807-1.451z" fill="url(#SVGID_70_)"/><path d="m167.123 161.994c-1.314.496-1.978 1.964-1.481 3.278.496 1.314 1.964 1.978 3.278 1.482s1.978-1.964 1.482-3.278-1.965-1.978-3.279-1.482z" fill="url(#SVGID_71_)"/><path d="m168.973 154.57c-1.038.392-1.561 1.55-1.17 2.588.392 1.038 1.55 1.561 2.588 1.17 1.038-.392 1.561-1.55 1.17-2.588s-1.55-1.561-2.588-1.17z" fill="url(#SVGID_72_)"/><path d="m161.423 159.578c.626-.236.941-.935.705-1.56-.236-.626-.935-.941-1.56-.705-.626.236-.941.935-.705 1.56s.934.941 1.56.705z" fill="url(#SVGID_73_)"/><path d="m225.053 132.764c.653-1.785-.264-3.762-2.05-4.416-1.785-.653-3.762.264-4.416 2.05-.653 1.785.264 3.762 2.05 4.416 1.786.653 3.763-.264 4.416-2.05z" fill="url(#SVGID_74_)"/><path d="m212.588 164.366c-1.409-.516-2.97.209-3.486 1.618s.209 2.97 1.618 3.486 2.97-.209 3.486-1.618c.515-1.409-.209-2.97-1.618-3.486z" fill="url(#SVGID_75_)"/><path d="m206.288 150.143c-.85-.311-1.791.126-2.102.976s.126 1.791.975 2.101c.85.311 1.791-.126 2.102-.975.311-.851-.126-1.792-.975-2.102z" fill="url(#SVGID_76_)"/><path d="m244.26 134.805c-1.89.206-3.255 1.906-3.048 3.796.206 1.89 1.906 3.255 3.796 3.048 1.89-.206 3.255-1.906 3.048-3.796s-1.906-3.255-3.796-3.048z" fill="url(#SVGID_77_)"/><path d="m243.255 130.305c-.163-1.492-1.505-2.569-2.996-2.406-1.492.163-2.569 1.504-2.406 2.996s1.504 2.569 2.996 2.406c1.492-.162 2.569-1.504 2.406-2.996z" fill="url(#SVGID_78_)"/><path d="m232.379 128.487c-.899.098-1.549.907-1.451 1.807.098.899.907 1.549 1.807 1.451.899-.098 1.549-.907 1.451-1.807-.099-.9-.907-1.549-1.807-1.451z" fill="url(#SVGID_79_)"/><path d="m220.923 154.069c-1.314.496-1.978 1.964-1.482 3.278s1.964 1.978 3.278 1.482 1.978-1.964 1.481-3.278c-.495-1.314-1.963-1.978-3.277-1.482z" fill="url(#SVGID_80_)"/><path d="m230.803 135.783c-1.038.392-1.561 1.55-1.17 2.588.392 1.038 1.55 1.561 2.588 1.17 1.038-.392 1.561-1.55 1.17-2.588-.392-1.038-1.551-1.562-2.588-1.17z" fill="url(#SVGID_81_)"/><path d="m223.252 140.79c.626-.236.941-.935.705-1.56-.236-.626-.935-.941-1.56-.705-.626.236-.941.935-.705 1.56s.935.941 1.56.705z" fill="url(#SVGID_82_)"/></g></g></svg>