<svg id="Layer_1" enable-background="new 0 0 510 510" height="512" viewBox="0 0 510 510" width="512" xmlns="http://www.w3.org/2000/svg"><g><g fill="#98f9ff"><path d="m75 90h-60v-30h61.508z"/><path d="m75 150h-45v-30h45l10 15z"/><path d="m75 210h-60v-30h60l10 13.833z"/></g><path d="m75 75v155.081c-21.002 12.142-38.805 29.221-51.844 49.828-15.149 23.943-23.156 51.637-23.156 80.091 0 82.71 67.289 150 150 150l10-263-10-247c-41.354 0-75 33.645-75 75z" fill="#f9f5f1"/><path d="m276.844 279.909c-13.039-20.607-30.842-37.687-51.844-49.828v-155.081c0-41.355-33.645-75-75-75v510c82.71 0 150-67.29 150-150 0-28.454-8.007-56.148-23.156-80.091z" fill="#ece6f2"/><path d="m135 90v196.51c-34.191 6.968-60 37.271-60 73.49 0 41.355 33.646 75 75 75l10-165-10-180z" fill="#ff4a4a"/><path d="m165 286.51v-196.51h-15v345c41.355 0 75-33.645 75-75 0-36.22-25.809-66.522-60-73.49z" fill="#e20059"/><path d="m375 0v31.973l-21.68-14.453-16.64 24.96 38.32 25.547v36.973h-36.973l-25.547-38.32-24.96 16.64 14.453 21.68h-31.973v30h31.973l-14.453 21.68 24.96 16.64 25.547-38.32h36.973v36.973l-38.32 25.547 16.64 24.96 21.68-14.453v31.973h15l15-120-15-120z" fill="#98f9ff"/><path d="m510 105h-31.973l14.453-21.68-24.96-16.64-25.547 38.32h-36.973v-36.973l38.32-25.547-16.64-24.96-21.68 14.453v-31.973h-15v240h15v-31.973l21.68 14.453 16.64-24.96-38.32-25.547v-36.973h36.973l25.547 38.32 24.96-16.64-14.453-21.68h31.973z" fill="#7dd5f4"/></g></svg>