<?xml version="1.0" encoding="iso-8859-1"?>
<!-- Generator: Adobe Illustrator 21.0.0, SVG Export Plug-In . SVG Version: 6.00 Build 0)  -->
<svg xmlns="http://www.w3.org/2000/svg" xmlns:xlink="http://www.w3.org/1999/xlink" version="1.1" id="Capa_1" x="0px" y="0px" viewBox="0 0 512 512" style="enable-background:new 0 0 512 512;" xml:space="preserve" width="512" height="512">
<g>
	<g>
		<path style="fill:#7FE881;" d="M190.053,180.499c-38.438,0-71.821-27.363-79.365-65.068L91.293,18.443    c-0.981-4.922,0.557-10.005,4.102-13.55c3.56-3.545,8.628-5.083,13.55-4.102l96.987,19.395C243.637,27.73,271,61.114,271,99.552    C271,144.185,234.687,180.499,190.053,180.499z"/>
	</g>
	<g>
		<path style="fill:#5BC980;" d="M275.395,206.104l-90-90c-5.859-5.859-5.859-15.352,0-21.211s15.352-5.859,21.211,0l90,90    c5.859,5.859,5.859,15.352,0,21.211C290.746,211.964,281.254,211.964,275.395,206.104z"/>
	</g>
	<g>
		<path style="fill:#5BC980;" d="M427.537,481.499c-36.138,0-65.537-29.399-65.537-65.537c0-30.132,20.405-56.279,49.644-63.574    l81.724-20.435c5.112-1.289,10.532,0.234,14.238,3.94c3.721,3.721,5.229,9.126,3.94,14.238l-20.435,81.724    C483.816,461.094,457.669,481.499,427.537,481.499z"/>
	</g>
	<g>
		<path style="fill:#00AB5E;" d="M336.395,507.104c-5.859-5.859-5.859-15.352,0-21.211l75-75c5.859-5.859,15.352-5.859,21.211,0    s5.859,15.352,0,21.211l-75,75C351.746,512.964,342.254,512.964,336.395,507.104z"/>
	</g>
	<g>
		<path style="fill:#76E2F8;" d="M512,151.499c0,66.167-53.833,120-120,120H15c-8.291,0-15-6.709-15-15c0-8.291,6.709-15,15-15h377    c49.629,0,90-40.371,90-90c0-33.091-26.909-60-60-60s-60,26.909-60,60c0,16.538,13.462,30,30,30s30-13.462,30-30    c0-8.291,6.709-15,15-15s15,6.709,15,15c0,33.091-26.909,60-60,60s-60-26.909-60-60c0-49.629,40.371-90,90-90    S512,101.87,512,151.499z"/>
	</g>
	<g>
		<g>
			<path style="fill:#25D9F8;" d="M256,481.499c-41.353,0-75-33.647-75-75c0-24.814,20.186-45,45-45s45,20.186,45,45     c0,8.291-6.709,15-15,15s-15-6.709-15-15c0-8.276-6.724-15-15-15s-15,6.724-15,15c0,24.814,20.186,45,45,45s45-20.186,45-45     c0-41.353-33.647-75-75-75H15c-8.291,0-15-6.709-15-15s6.709-15,15-15h211c57.891,0,105,47.109,105,105     C331,447.851,297.353,481.499,256,481.499z"/>
		</g>
	</g>
	<g>
		<path style="fill:#76E2F8;" d="M106,211.499H15c-8.291,0-15-6.709-15-15s6.709-15,15-15h91c8.291,0,15,6.709,15,15    S114.291,211.499,106,211.499z"/>
	</g>
	<g>
		<g>
			<path style="fill:#25D9F8;" d="M136,421.499H15c-8.291,0-15-6.709-15-15s6.709-15,15-15h121c8.291,0,15,6.709,15,15     S144.291,421.499,136,421.499z"/>
		</g>
	</g>
</g>















</svg>
