<svg id="Capa_1" enable-background="new 0 0 512.003 512.003" height="512" viewBox="0 0 512.003 512.003" width="512" xmlns="http://www.w3.org/2000/svg"><g><path d="m458.616 138.61-304 304c-5.824 5.825-15.339 5.882-21.22 0l-64-64c-5.85-5.86-5.85-15.36 0-21.22 5.896-5.895 299.89-299.89 304-304 5.86-5.85 15.36-5.85 21.22 0l64 64c5.85 5.86 5.85 15.36 0 21.22z" fill="#b1d5f1"/><path d="m458.616 138.61-304 304c-5.824 5.825-15.339 5.882-21.22 0l-32-32 325.22-325.22 32 32c5.85 5.86 5.85 15.36 0 21.22z" fill="#8bb9ff"/><path d="m507.616 25.61-33 33c-2.93 2.93-6.77 4.39-10.61 4.39-13.31 0-20.025-16.179-10.61-25.61l33-33c5.86-5.85 15.36-5.85 21.22 0 5.85 5.86 5.85 15.36 0 21.22z" fill="#0d8ebc"/><path d="m507.616 25.61-33 33c-5.824 5.825-15.339 5.882-21.22 0l54.22-54.22c5.85 5.86 5.85 15.36 0 21.22z" fill="#0a617d"/><path d="m496.006 101.22-37.39 37.39-85.22-85.22c15.188-15.188 15.037-15.038 37.39-37.39 11.738-11.718 30.682-11.737 42.439 0 14.863 14.863 27.633 27.633 42.78 42.78 11.713 11.712 11.702 30.74.001 42.44z" fill="#a2e786"/><path d="m496.006 101.22-37.39 37.39-42.61-42.61 58.61-58.61 21.39 21.39c11.712 11.712 11.701 30.74 0 42.44z" fill="#00da80"/><path d="m54.616 478.61-29 29c-2.93 2.93-6.77 4.39-10.61 4.39-13.31 0-20.025-16.179-10.61-25.61l29-29c5.86-5.85 15.36-5.85 21.22 0 5.85 5.86 5.85 15.36 0 21.22z" fill="#0d8ebc"/><path d="m54.616 457.391c5.85 5.86 5.85 15.36 0 21.22l-29 29c-5.824 5.825-15.339 5.882-21.22 0z" fill="#0a617d"/><path d="m152.606 444.29-80 56c-6.013 4.209-14.096 3.418-19.21-1.68l-40-40c-5.14-5.15-5.85-13.25-1.68-19.21l56-80c4.704 4.704 80.176 80.176 84.89 84.89z" fill="#a2e786"/><path d="m110.166 401.85 42.44 42.44-80 56c-6.013 4.209-14.096 3.418-19.21-1.68l-20-20z" fill="#00da80"/><path d="m481.996 208.38-112.07 98.87c-6.227 5.484-15.681 4.88-21.17-1.33-5.48-6.21-4.89-15.69 1.33-21.17l112.06-98.87c6.449-5.708 6.832-15.688.67-21.85-70.392-70.392-46.403-46.401-100.02-100.03 0-.1-.861.851 21.21-21.22 18.427 18.428 78.533 78.534 100.03 100.03 18.27 18.292 17.465 48.337-2.04 65.57z" fill="#0d8ebc"/><path d="m484.036 142.81c18.27 18.292 17.465 48.336-2.04 65.57l-112.07 98.87c-2.85 2.51-6.39 3.75-9.91 3.75-13.711 0-20.34-17.078-9.93-26.25l112.06-98.87c6.449-5.708 6.832-15.688.67-21.85l-57.42-57.42 21.22-21.22c22.344 22.345 36.4 36.401 57.42 57.42z" fill="#0a617d"/></g></svg>